<svg viewBox="0 0 500 400" xmlns="http://www.w3.org/2000/svg" style="width:100%;height:auto">
    <rect width="500" height="400" fill="#0e0a1a" rx="8"/>
    <defs>
    <marker id="cycle-arr" markerWidth="8" markerHeight="8" refX="6" refY="3" orient="auto">
      <path d="M0,0 L7,3 L0,6 Z" fill="#4c1d95"/>
    </marker>
  </defs><path d="M 303.0 64.7 Q 378.7 71.3 387.5 172.0" fill="none" stroke="#7c3aed" stroke-width="1.5" stroke-dasharray="4,2" marker-end="url(#cycle-arr)"/><path d="M 387.8 225.0 Q 378.7 328.7 306.0 335.1" fill="none" stroke="#8145f0" stroke-width="1.5" stroke-dasharray="4,2" marker-end="url(#cycle-arr)"/><path d="M 197.0 335.3 Q 121.3 328.7 112.5 228.0" fill="none" stroke="#8651f3" stroke-width="1.5" stroke-dasharray="4,2" marker-end="url(#cycle-arr)"/><path d="M 112.2 175.0 Q 121.3 71.3 194.0 64.9" fill="none" stroke="#8b5cf6" stroke-width="1.5" stroke-dasharray="4,2" marker-end="url(#cycle-arr)"/><rect x="200" y="38" width="100" height="44" rx="6" fill="#7c3aed" /><text x="250" y="65" text-anchor="middle" font-size="11" fill="#e2e8f0" font-family="system-ui,sans-serif" font-weight="600">Plan</text><rect x="340" y="178" width="100" height="44" rx="6" fill="#8145f0" /><text x="390" y="205" text-anchor="middle" font-size="11" fill="#e2e8f0" font-family="system-ui,sans-serif" font-weight="600">Build</text><rect x="200" y="318" width="100" height="44" rx="6" fill="#8651f3" /><text x="250" y="345" text-anchor="middle" font-size="11" fill="#e2e8f0" font-family="system-ui,sans-serif" font-weight="600">Measure</text><rect x="60" y="178.00000000000003" width="100" height="44" rx="6" fill="#8b5cf6" /><text x="110" y="205.00000000000003" text-anchor="middle" font-size="11" fill="#e2e8f0" font-family="system-ui,sans-serif" font-weight="600">Learn</text><text x="250" y="205" text-anchor="middle" font-size="12" fill="#c4b5fd" font-family="system-ui,sans-serif">Build–Measure–Learn</text>
  </svg>