<svg viewBox="0 0 600 234" xmlns="http://www.w3.org/2000/svg" style="width:100%;height:auto;background:#f5f3ff;border-radius:8px">
  <text x="300" y="20" text-anchor="middle" font-size="13" fill="#7c3aed" font-family="system-ui,sans-serif" font-weight="600">Q3 Roadmap</text>
  <line x1="138.0" y1="50" x2="138.0" y2="226" stroke="#ddd6fe" stroke-width="0.5"/>
  <text x="138.0" y="44" text-anchor="middle" font-size="10" fill="#7c3aed" font-family="system-ui,sans-serif">1</text>
  <line x1="187.6" y1="50" x2="187.6" y2="226" stroke="#ddd6fe" stroke-width="0.5"/>
  <text x="187.6" y="44" text-anchor="middle" font-size="10" fill="#7c3aed" font-family="system-ui,sans-serif">2</text>
  <line x1="237.1" y1="50" x2="237.1" y2="226" stroke="#ddd6fe" stroke-width="0.5"/>
  <text x="237.1" y="44" text-anchor="middle" font-size="10" fill="#7c3aed" font-family="system-ui,sans-serif">3</text>
  <line x1="286.7" y1="50" x2="286.7" y2="226" stroke="#ddd6fe" stroke-width="0.5"/>
  <text x="286.7" y="44" text-anchor="middle" font-size="10" fill="#7c3aed" font-family="system-ui,sans-serif">4</text>
  <line x1="336.2" y1="50" x2="336.2" y2="226" stroke="#ddd6fe" stroke-width="0.5"/>
  <text x="336.2" y="44" text-anchor="middle" font-size="10" fill="#7c3aed" font-family="system-ui,sans-serif">5</text>
  <line x1="385.8" y1="50" x2="385.8" y2="226" stroke="#ddd6fe" stroke-width="0.5"/>
  <text x="385.8" y="44" text-anchor="middle" font-size="10" fill="#7c3aed" font-family="system-ui,sans-serif">6</text>
  <line x1="435.3" y1="50" x2="435.3" y2="226" stroke="#ddd6fe" stroke-width="0.5"/>
  <text x="435.3" y="44" text-anchor="middle" font-size="10" fill="#7c3aed" font-family="system-ui,sans-serif">7</text>
  <line x1="484.9" y1="50" x2="484.9" y2="226" stroke="#ddd6fe" stroke-width="0.5"/>
  <text x="484.9" y="44" text-anchor="middle" font-size="10" fill="#7c3aed" font-family="system-ui,sans-serif">8</text>
  <line x1="534.4" y1="50" x2="534.4" y2="226" stroke="#ddd6fe" stroke-width="0.5"/>
  <text x="534.4" y="44" text-anchor="middle" font-size="10" fill="#7c3aed" font-family="system-ui,sans-serif">9</text>
  <line x1="584.0" y1="50" x2="584.0" y2="226" stroke="#ddd6fe" stroke-width="0.5"/>
  <text x="584.0" y="44" text-anchor="middle" font-size="10" fill="#7c3aed" font-family="system-ui,sans-serif">10</text>
  <rect x="0" y="52.0" width="600" height="34" fill="#ffffff" opacity="0.5"/>
  <text x="130.0" y="73.0" text-anchor="end" font-size="11" fill="#2e1065" font-family="system-ui,sans-serif">Research</text>
  <rect x="138.0" y="60.0" width="99.1" height="18" rx="4" fill="#a78bfa88" stroke="#a78bfa" stroke-width="1"/>
  <text x="130.0" y="107.0" text-anchor="end" font-size="11" fill="#2e1065" font-family="system-ui,sans-serif">Design</text>
  <rect x="187.6" y="94.0" width="148.7" height="18" rx="4" fill="#a78bfa88" stroke="#a78bfa" stroke-width="1"/>
  <rect x="0" y="120.0" width="600" height="34" fill="#ffffff" opacity="0.5"/>
  <text x="130.0" y="141.0" text-anchor="end" font-size="11" fill="#2e1065" font-family="system-ui,sans-serif">Development</text>
  <rect x="237.1" y="128.0" width="297.3" height="18" rx="4" fill="#a78bfa88" stroke="#a78bfa" stroke-width="1"/>
  <text x="130.0" y="175.0" text-anchor="end" font-size="11" fill="#2e1065" font-family="system-ui,sans-serif">Testing</text>
  <rect x="435.3" y="162.0" width="148.7" height="18" rx="4" fill="#a78bfa88" stroke="#a78bfa" stroke-width="1"/>
  <rect x="0" y="188.0" width="600" height="34" fill="#ffffff" opacity="0.5"/>
  <text x="130.0" y="209.0" text-anchor="end" font-size="11" fill="#2e1065" font-family="system-ui,sans-serif">Launch</text>
  <rect x="138.0" y="196.0" width="49.6" height="18" rx="4" fill="#a78bfa88" stroke="#a78bfa" stroke-width="1"/>
</svg>