<svg viewBox="0 0 600 250" xmlns="http://www.w3.org/2000/svg" style="width:100%;height:auto;background:#080f18;border-radius:8px">
  <text x="300" y="20" text-anchor="middle" font-size="13" fill="#7dd3fc" font-family="system-ui,sans-serif" font-weight="600">Auth Flow</text>
  <defs>
    <marker id="sq-a" markerWidth="7" markerHeight="7" refX="6" refY="3.5" orient="auto">
      <path d="M0,0 L7,3.5 L0,7 Z" fill="#38bdf8"/>
    </marker>
    <marker id="sq-b" markerWidth="7" markerHeight="7" refX="6" refY="3.5" orient="auto">
      <path d="M0,0 L7,3.5 L0,7 Z" fill="#0c4a6ebb"/>
    </marker>
  </defs>
  <rect x="52.0" y="38.0" width="96.0" height="28" rx="5" fill="#38bdf822" stroke="#38bdf877" stroke-width="1.5"/>
  <text x="100.0" y="56.0" text-anchor="middle" font-size="11" fill="#e2e8f0" font-family="system-ui,sans-serif" font-weight="600">Browser</text>
  <rect x="252.0" y="38.0" width="96.0" height="28" rx="5" fill="#38bdf822" stroke="#38bdf877" stroke-width="1.5"/>
  <text x="300.0" y="56.0" text-anchor="middle" font-size="11" fill="#e2e8f0" font-family="system-ui,sans-serif" font-weight="600">API</text>
  <rect x="452.0" y="38.0" width="96.0" height="28" rx="5" fill="#38bdf822" stroke="#38bdf877" stroke-width="1.5"/>
  <text x="500.0" y="56.0" text-anchor="middle" font-size="11" fill="#e2e8f0" font-family="system-ui,sans-serif" font-weight="600">DB</text>
  <line x1="100.0" y1="74.0" x2="100.0" y2="234.0" stroke="#0e3050" stroke-width="1" stroke-dasharray="4,4"/>
  <line x1="300.0" y1="74.0" x2="300.0" y2="234.0" stroke="#0e3050" stroke-width="1" stroke-dasharray="4,4"/>
  <line x1="500.0" y1="74.0" x2="500.0" y2="234.0" stroke="#0e3050" stroke-width="1" stroke-dasharray="4,4"/>
  <line x1="104.0" y1="90.0" x2="292.0" y2="90.0" stroke="#38bdf8" stroke-width="1.5" marker-end="url(#sq-a)"/>
  <text x="198.0" y="86.0" text-anchor="middle" font-size="10" fill="#7dd3fc" font-family="system-ui,sans-serif">POST /login</text>
  <line x1="304.0" y1="126.0" x2="492.0" y2="126.0" stroke="#38bdf8" stroke-width="1.5" marker-end="url(#sq-a)"/>
  <text x="398.0" y="122.0" text-anchor="middle" font-size="10" fill="#7dd3fc" font-family="system-ui,sans-serif">validate credentials</text>
  <line x1="496.0" y1="162.0" x2="308.0" y2="162.0" stroke="#0c4a6ebb" stroke-width="1.5" stroke-dasharray="5,3" marker-end="url(#sq-b)"/>
  <text x="402.0" y="158.0" text-anchor="middle" font-size="10" fill="#7dd3fc" font-family="system-ui,sans-serif">user record</text>
  <line x1="296.0" y1="198.0" x2="108.0" y2="198.0" stroke="#0c4a6ebb" stroke-width="1.5" stroke-dasharray="5,3" marker-end="url(#sq-b)"/>
  <text x="202.0" y="194.0" text-anchor="middle" font-size="10" fill="#7dd3fc" font-family="system-ui,sans-serif">200 + JWT</text>
</svg>