<svg viewBox="0 0 600 326" xmlns="http://www.w3.org/2000/svg" style="width:100%;height:auto;background:#ffffff;border-radius:8px">
  <text x="300" y="20" text-anchor="middle" font-size="13" fill="#6b7280" font-family="system-ui,sans-serif" font-weight="600">Shape Hierarchy</text>
  <rect x="22.5" y="42.0" width="170" height="100" rx="5" fill="#f9fafb" stroke="#6b728077" stroke-width="1.5"/>
  <path d="M27.5,42.0 L187.5,42.0 Q192.5,42.0 192.5,47.0 L192.5,72.0 L22.5,72.0 L22.5,47.0 Q22.5,42.0 27.5,42.0 Z" fill="#6b728022"/>
  <text x="107.5" y="53.0" text-anchor="middle" font-size="8" fill="#6b728099" font-family="system-ui,sans-serif">«abstract»</text>
  <text x="107.5" y="66.0" text-anchor="middle" font-size="12" fill="#111827" font-family="ui-monospace,monospace" font-weight="700" font-style="italic">Shape</text>
  <line x1="22.5" y1="72.0" x2="192.5" y2="72.0" stroke="#6b728044" stroke-width="1"/>
  <text x="29.5" y="85.0" font-size="10" fill="#6b7280cc" font-family="ui-monospace,monospace">+ color</text>
  <line x1="22.5" y1="93.0" x2="192.5" y2="93.0" stroke="#e5e7eb" stroke-width="0.8"/>
  <text x="29.5" y="109.0" font-size="10" fill="#374151cc" font-family="ui-monospace,monospace">+ area()</text>
  <text x="29.5" y="127.0" font-size="10" fill="#374151cc" font-family="ui-monospace,monospace" text-decoration="underline">+ describe()</text>
  <rect x="215.0" y="42.0" width="170" height="58" rx="5" fill="#f9fafb" stroke="#6b728077" stroke-width="1.5"/>
  <path d="M220.0,42.0 L380.0,42.0 Q385.0,42.0 385.0,47.0 L385.0,72.0 L215.0,72.0 L215.0,47.0 Q215.0,42.0 220.0,42.0 Z" fill="#6b728022"/>
  <text x="300.0" y="53.0" text-anchor="middle" font-size="8" fill="#6b728099" font-family="system-ui,sans-serif">«interface»</text>
  <text x="300.0" y="66.0" text-anchor="middle" font-size="12" fill="#111827" font-family="ui-monospace,monospace" font-weight="700" font-style="italic">Drawable</text>
  <line x1="215.0" y1="72.0" x2="385.0" y2="72.0" stroke="#6b728044" stroke-width="1"/>
  <text x="222.0" y="85.0" font-size="10" fill="#374151cc" font-family="ui-monospace,monospace">+ draw()</text>
  <rect x="407.5" y="42.0" width="170" height="100" rx="5" fill="#f9fafb" stroke="#6b728077" stroke-width="1.5"/>
  <path d="M412.5,42.0 L572.5,42.0 Q577.5,42.0 577.5,47.0 L577.5,72.0 L407.5,72.0 L407.5,47.0 Q407.5,42.0 412.5,42.0 Z" fill="#6b728022"/>
  <text x="492.5" y="61.0" text-anchor="middle" font-size="12" fill="#111827" font-family="ui-monospace,monospace" font-weight="700">Circle</text>
  <line x1="407.5" y1="72.0" x2="577.5" y2="72.0" stroke="#6b728044" stroke-width="1"/>
  <text x="414.5" y="85.0" font-size="10" fill="#6b7280cc" font-family="ui-monospace,monospace">- radius</text>
  <line x1="407.5" y1="93.0" x2="577.5" y2="93.0" stroke="#e5e7eb" stroke-width="0.8"/>
  <text x="414.5" y="109.0" font-size="10" fill="#374151cc" font-family="ui-monospace,monospace">+ area()</text>
  <text x="414.5" y="127.0" font-size="10" fill="#374151cc" font-family="ui-monospace,monospace">+ draw()</text>
  <rect x="22.5" y="180.0" width="170" height="118" rx="5" fill="#f9fafb" stroke="#6b728077" stroke-width="1.5"/>
  <path d="M27.5,180.0 L187.5,180.0 Q192.5,180.0 192.5,185.0 L192.5,210.0 L22.5,210.0 L22.5,185.0 Q22.5,180.0 27.5,180.0 Z" fill="#6b728022"/>
  <text x="107.5" y="199.0" text-anchor="middle" font-size="12" fill="#111827" font-family="ui-monospace,monospace" font-weight="700">Rectangle</text>
  <line x1="22.5" y1="210.0" x2="192.5" y2="210.0" stroke="#6b728044" stroke-width="1"/>
  <text x="29.5" y="223.0" font-size="10" fill="#6b7280cc" font-family="ui-monospace,monospace">- width</text>
  <text x="29.5" y="241.0" font-size="10" fill="#6b7280cc" font-family="ui-monospace,monospace">- height</text>
  <line x1="22.5" y1="249.0" x2="192.5" y2="249.0" stroke="#e5e7eb" stroke-width="0.8"/>
  <text x="29.5" y="265.0" font-size="10" fill="#374151cc" font-family="ui-monospace,monospace">+ area()</text>
  <text x="29.5" y="283.0" font-size="10" fill="#374151cc" font-family="ui-monospace,monospace">+ draw()</text>
</svg>