<svg viewBox="0 0 540 198" xmlns="http://www.w3.org/2000/svg" style="width:100%;height:auto">
    <rect width="540" height="198" fill="#080f18" rx="8"/>
    <text x="270" y="28" text-anchor="middle" font-size="13" fill="#e2e8f0" font-family="system-ui,sans-serif" font-weight="700">Database Comparison</text><rect x="0" y="40" width="120" height="44" fill="#0d1828" /><text x="60" y="67" text-anchor="middle" font-size="11" fill="#93c5fd" font-family="system-ui,sans-serif" font-weight="600">Feature</text><rect x="120" y="40" width="140" height="44" fill="#1e3a8a" /><text x="190" y="67" text-anchor="middle" font-size="12" fill="#bfdbfe" font-family="system-ui,sans-serif" font-weight="700">Storage model</text><rect x="260" y="40" width="140" height="44" fill="#1e44b1" /><text x="330" y="67" text-anchor="middle" font-size="12" fill="#bfdbfe" font-family="system-ui,sans-serif" font-weight="700">Scaling</text><rect x="400" y="40" width="140" height="44" fill="#1d4ed8" /><text x="470" y="67" text-anchor="middle" font-size="12" fill="#bfdbfe" font-family="system-ui,sans-serif" font-weight="700">Best for</text><rect x="0" y="84" width="540" height="34" fill="#0d1828" /><text x="12" y="106" font-size="11" fill="#93c5fd" font-family="system-ui,sans-serif">PostgreSQL</text><text x="190" y="106" text-anchor="middle" font-size="11" fill="#e2e8f0" font-family="system-ui,sans-serif">Relational</text><text x="330" y="106" text-anchor="middle" font-size="11" fill="#e2e8f0" font-family="system-ui,sans-serif">Vertical</text><text x="470" y="106" text-anchor="middle" font-size="11" fill="#e2e8f0" font-family="system-ui,sans-serif">OLTP / analytics</text><line x1="0" y1="118" x2="540" y2="118" stroke="#1e3050" stroke-width="0.5" /><rect x="0" y="118" width="540" height="34" fill="#080f18" /><text x="12" y="140" font-size="11" fill="#93c5fd" font-family="system-ui,sans-serif">MongoDB</text><text x="190" y="140" text-anchor="middle" font-size="11" fill="#e2e8f0" font-family="system-ui,sans-serif">Document</text><text x="330" y="140" text-anchor="middle" font-size="11" fill="#e2e8f0" font-family="system-ui,sans-serif">Horizontal</text><text x="470" y="140" text-anchor="middle" font-size="11" fill="#e2e8f0" font-family="system-ui,sans-serif">Flexible schemas</text><line x1="0" y1="152" x2="540" y2="152" stroke="#1e3050" stroke-width="0.5" /><rect x="0" y="152" width="540" height="34" fill="#0d1828" /><text x="12" y="174" font-size="11" fill="#93c5fd" font-family="system-ui,sans-serif">Redis</text><text x="190" y="174" text-anchor="middle" font-size="11" fill="#e2e8f0" font-family="system-ui,sans-serif">Key-value</text><text x="330" y="174" text-anchor="middle" font-size="11" fill="#e2e8f0" font-family="system-ui,sans-serif">In-memory</text><text x="470" y="174" text-anchor="middle" font-size="11" fill="#e2e8f0" font-family="system-ui,sans-serif">Caching / sessions</text><line x1="0" y1="186" x2="540" y2="186" stroke="#1e3050" stroke-width="0.5" /><line x1="120" y1="40" x2="120" y2="186" stroke="#1e3050" stroke-width="0.5" /><line x1="260" y1="40" x2="260" y2="186" stroke="#1e3050" stroke-width="0.5" /><line x1="400" y1="40" x2="400" y2="186" stroke="#1e3050" stroke-width="0.5" /><line x1="540" y1="40" x2="540" y2="186" stroke="#1e3050" stroke-width="0.5" /><line x1="120" y1="40" x2="120" y2="186" stroke="#1e3050" stroke-width="1" />
  </svg>