<svg viewBox="0 0 600 302" xmlns="http://www.w3.org/2000/svg" style="width:100%;height:auto;background:#ffffff;border-radius:8px">
  <text x="300" y="20" text-anchor="middle" font-size="13" fill="#6b7280" font-family="system-ui,sans-serif" font-weight="600">Q2 Roadmap</text>
  <line x1="138.0" y1="50" x2="138.0" y2="294" stroke="#e5e7eb" stroke-width="0.5"/>
  <text x="138.0" y="44" text-anchor="middle" font-size="10" fill="#d1d5db" font-family="system-ui,sans-serif">1</text>
  <line x1="172.3" y1="50" x2="172.3" y2="294" stroke="#e5e7eb" stroke-width="0.5"/>
  <text x="172.3" y="44" text-anchor="middle" font-size="10" fill="#d1d5db" font-family="system-ui,sans-serif">2</text>
  <line x1="206.6" y1="50" x2="206.6" y2="294" stroke="#e5e7eb" stroke-width="0.5"/>
  <text x="206.6" y="44" text-anchor="middle" font-size="10" fill="#d1d5db" font-family="system-ui,sans-serif">3</text>
  <line x1="240.9" y1="50" x2="240.9" y2="294" stroke="#e5e7eb" stroke-width="0.5"/>
  <text x="240.9" y="44" text-anchor="middle" font-size="10" fill="#d1d5db" font-family="system-ui,sans-serif">4</text>
  <line x1="275.2" y1="50" x2="275.2" y2="294" stroke="#e5e7eb" stroke-width="0.5"/>
  <text x="275.2" y="44" text-anchor="middle" font-size="10" fill="#d1d5db" font-family="system-ui,sans-serif">5</text>
  <line x1="309.5" y1="50" x2="309.5" y2="294" stroke="#e5e7eb" stroke-width="0.5"/>
  <text x="309.5" y="44" text-anchor="middle" font-size="10" fill="#d1d5db" font-family="system-ui,sans-serif">6</text>
  <line x1="343.8" y1="50" x2="343.8" y2="294" stroke="#e5e7eb" stroke-width="0.5"/>
  <text x="343.8" y="44" text-anchor="middle" font-size="10" fill="#d1d5db" font-family="system-ui,sans-serif">7</text>
  <line x1="378.2" y1="50" x2="378.2" y2="294" stroke="#e5e7eb" stroke-width="0.5"/>
  <text x="378.2" y="44" text-anchor="middle" font-size="10" fill="#d1d5db" font-family="system-ui,sans-serif">8</text>
  <line x1="412.5" y1="50" x2="412.5" y2="294" stroke="#e5e7eb" stroke-width="0.5"/>
  <text x="412.5" y="44" text-anchor="middle" font-size="10" fill="#d1d5db" font-family="system-ui,sans-serif">9</text>
  <line x1="446.8" y1="50" x2="446.8" y2="294" stroke="#e5e7eb" stroke-width="0.5"/>
  <text x="446.8" y="44" text-anchor="middle" font-size="10" fill="#d1d5db" font-family="system-ui,sans-serif">10</text>
  <line x1="481.1" y1="50" x2="481.1" y2="294" stroke="#e5e7eb" stroke-width="0.5"/>
  <text x="481.1" y="44" text-anchor="middle" font-size="10" fill="#d1d5db" font-family="system-ui,sans-serif">11</text>
  <line x1="515.4" y1="50" x2="515.4" y2="294" stroke="#e5e7eb" stroke-width="0.5"/>
  <text x="515.4" y="44" text-anchor="middle" font-size="10" fill="#d1d5db" font-family="system-ui,sans-serif">12</text>
  <line x1="549.7" y1="50" x2="549.7" y2="294" stroke="#e5e7eb" stroke-width="0.5"/>
  <text x="549.7" y="44" text-anchor="middle" font-size="10" fill="#d1d5db" font-family="system-ui,sans-serif">13</text>
  <line x1="584.0" y1="50" x2="584.0" y2="294" stroke="#e5e7eb" stroke-width="0.5"/>
  <text x="584.0" y="44" text-anchor="middle" font-size="10" fill="#d1d5db" font-family="system-ui,sans-serif">14</text>
  <rect x="0" y="52.0" width="600" height="34" fill="#f9fafb" opacity="0.5"/>
  <text x="130.0" y="73.0" text-anchor="end" font-size="11" fill="#111827" font-family="system-ui,sans-serif">Discovery</text>
  <rect x="138.0" y="60.0" width="68.6" height="18" rx="4" fill="#6b728088" stroke="#6b7280" stroke-width="1"/>
  <text x="130.0" y="107.0" text-anchor="end" font-size="11" fill="#111827" font-family="system-ui,sans-serif">Design</text>
  <rect x="172.3" y="94.0" width="102.9" height="18" rx="4" fill="#6b728088" stroke="#6b7280" stroke-width="1"/>
  <rect x="0" y="120.0" width="600" height="34" fill="#f9fafb" opacity="0.5"/>
  <text x="130.0" y="141.0" text-anchor="end" font-size="11" fill="#111827" font-family="system-ui,sans-serif">Engineering</text>
  <rect x="240.9" y="128.0" width="240.2" height="18" rx="4" fill="#6b728088" stroke="#6b7280" stroke-width="1"/>
  <text x="130.0" y="175.0" text-anchor="end" font-size="11" fill="#111827" font-family="system-ui,sans-serif">QA &amp; Staging</text>
  <rect x="412.5" y="162.0" width="102.9" height="18" rx="4" fill="#6b728088" stroke="#6b7280" stroke-width="1"/>
  <rect x="0" y="188.0" width="600" height="34" fill="#f9fafb" opacity="0.5"/>
  <text x="130.0" y="209.0" text-anchor="end" font-size="11" fill="#111827" font-family="system-ui,sans-serif">Beta Launch</text>
  <rect x="138.0" y="196.0" width="34.3" height="18" rx="4" fill="#6b728088" stroke="#6b7280" stroke-width="1"/>
  <text x="130.0" y="243.0" text-anchor="end" font-size="11" fill="#111827" font-family="system-ui,sans-serif">Rollout</text>
  <rect x="481.1" y="230.0" width="102.9" height="18" rx="4" fill="#6b728088" stroke="#6b7280" stroke-width="1"/>
  <rect x="0" y="256.0" width="600" height="34" fill="#f9fafb" opacity="0.5"/>
  <text x="130.0" y="277.0" text-anchor="end" font-size="11" fill="#111827" font-family="system-ui,sans-serif">GA Release</text>
  <rect x="138.0" y="264.0" width="34.3" height="18" rx="4" fill="#6b728088" stroke="#6b7280" stroke-width="1"/>
</svg>