<svg viewBox="0 0 364 186" xmlns="http://www.w3.org/2000/svg" style="width:100%;height:auto;background:#f0fdf4;border-radius:8px">
  <text x="182" y="20" text-anchor="middle" font-size="13" fill="#059669" font-family="system-ui,sans-serif" font-weight="600">Support Tickets by Day &amp; Shift</text>
  <rect x="0" y="30" width="100" height="28" fill="#ffffff" stroke="#bbf7d0" stroke-width="0.5"/>
  <rect x="100" y="30" width="88" height="28" fill="#ffffff" stroke="#bbf7d0" stroke-width="0.5"/>
  <text x="144.0" y="49.0" text-anchor="middle" font-size="10" fill="#059669" font-family="system-ui,sans-serif" font-weight="600">A</text>
  <rect x="188" y="30" width="88" height="28" fill="#ffffff" stroke="#bbf7d0" stroke-width="0.5"/>
  <text x="232.0" y="49.0" text-anchor="middle" font-size="10" fill="#059669" font-family="system-ui,sans-serif" font-weight="600">B</text>
  <rect x="276" y="30" width="88" height="28" fill="#ffffff" stroke="#bbf7d0" stroke-width="0.5"/>
  <text x="320.0" y="49.0" text-anchor="middle" font-size="10" fill="#059669" font-family="system-ui,sans-serif" font-weight="600">C</text>
  <rect x="0" y="58" width="100" height="40" fill="#ffffff" stroke="#bbf7d0" stroke-width="0.5"/>
  <text x="8" y="83.0" font-size="10" fill="#059669" font-family="system-ui,sans-serif">Mon</text>
  <rect x="100" y="58" width="88" height="40" fill="#05966941" stroke="#bbf7d055" stroke-width="0.5"/>
  <text x="144.0" y="83.0" text-anchor="middle" font-size="10" fill="#052e16" font-family="system-ui,sans-serif">Morning</text>
  <rect x="188" y="58" width="88" height="40" fill="#059669b5" stroke="#bbf7d055" stroke-width="0.5"/>
  <text x="232.0" y="83.0" text-anchor="middle" font-size="10" fill="#f0fdf4" font-family="system-ui,sans-serif">Afternoon</text>
  <rect x="276" y="58" width="88" height="40" fill="#05966964" stroke="#bbf7d055" stroke-width="0.5"/>
  <text x="320.0" y="83.0" text-anchor="middle" font-size="10" fill="#052e16" font-family="system-ui,sans-serif">Evening</text>
  <rect x="0" y="98" width="100" height="40" fill="#ffffff" stroke="#bbf7d0" stroke-width="0.5"/>
  <text x="8" y="123.0" font-size="10" fill="#059669" font-family="system-ui,sans-serif">Wed</text>
  <rect x="100" y="98" width="88" height="40" fill="#0596697b" stroke="#bbf7d055" stroke-width="0.5"/>
  <text x="144.0" y="123.0" text-anchor="middle" font-size="10" fill="#052e16" font-family="system-ui,sans-serif">Morning</text>
  <rect x="188" y="98" width="88" height="40" fill="#059669e4" stroke="#bbf7d055" stroke-width="0.5"/>
  <text x="232.0" y="123.0" text-anchor="middle" font-size="10" fill="#f0fdf4" font-family="system-ui,sans-serif">Afternoon</text>
  <rect x="276" y="98" width="88" height="40" fill="#05966935" stroke="#bbf7d055" stroke-width="0.5"/>
  <text x="320.0" y="123.0" text-anchor="middle" font-size="10" fill="#052e16" font-family="system-ui,sans-serif">Evening</text>
  <rect x="0" y="138" width="100" height="40" fill="#ffffff" stroke="#bbf7d0" stroke-width="0.5"/>
  <text x="8" y="163.0" font-size="10" fill="#059669" font-family="system-ui,sans-serif">Fri</text>
  <rect x="100" y="138" width="88" height="40" fill="#0596699e" stroke="#bbf7d055" stroke-width="0.5"/>
  <text x="144.0" y="163.0" text-anchor="middle" font-size="10" fill="#f0fdf4" font-family="system-ui,sans-serif">Morning</text>
  <rect x="188" y="138" width="88" height="40" fill="#05966992" stroke="#bbf7d055" stroke-width="0.5"/>
  <text x="232.0" y="163.0" text-anchor="middle" font-size="10" fill="#f0fdf4" font-family="system-ui,sans-serif">Afternoon</text>
  <rect x="276" y="138" width="88" height="40" fill="#05966958" stroke="#bbf7d055" stroke-width="0.5"/>
  <text x="320.0" y="163.0" text-anchor="middle" font-size="10" fill="#052e16" font-family="system-ui,sans-serif">Evening</text>
</svg>