<svg viewBox="0 0 364 186" xmlns="http://www.w3.org/2000/svg" style="width:100%;height:auto;background:#ffffff;border-radius:8px">
  <text x="182" y="20" text-anchor="middle" font-size="13" fill="#6b7280" font-family="system-ui,sans-serif" font-weight="600">Support Tickets by Day &amp; Shift</text>
  <rect x="0" y="30" width="100" height="28" fill="#f9fafb" stroke="#e5e7eb" stroke-width="0.5"/>
  <rect x="100" y="30" width="88" height="28" fill="#f9fafb" stroke="#e5e7eb" stroke-width="0.5"/>
  <text x="144.0" y="49.0" text-anchor="middle" font-size="10" fill="#6b7280" font-family="system-ui,sans-serif" font-weight="600">A</text>
  <rect x="188" y="30" width="88" height="28" fill="#f9fafb" stroke="#e5e7eb" stroke-width="0.5"/>
  <text x="232.0" y="49.0" text-anchor="middle" font-size="10" fill="#6b7280" font-family="system-ui,sans-serif" font-weight="600">B</text>
  <rect x="276" y="30" width="88" height="28" fill="#f9fafb" stroke="#e5e7eb" stroke-width="0.5"/>
  <text x="320.0" y="49.0" text-anchor="middle" font-size="10" fill="#6b7280" font-family="system-ui,sans-serif" font-weight="600">C</text>
  <rect x="0" y="58" width="100" height="40" fill="#f9fafb" stroke="#e5e7eb" stroke-width="0.5"/>
  <text x="8" y="83.0" font-size="10" fill="#6b7280" font-family="system-ui,sans-serif">Mon</text>
  <rect x="100" y="58" width="88" height="40" fill="#37415141" stroke="#e5e7eb55" stroke-width="0.5"/>
  <text x="144.0" y="83.0" text-anchor="middle" font-size="10" fill="#111827" font-family="system-ui,sans-serif">Morning</text>
  <rect x="188" y="58" width="88" height="40" fill="#374151b5" stroke="#e5e7eb55" stroke-width="0.5"/>
  <text x="232.0" y="83.0" text-anchor="middle" font-size="10" fill="#ffffff" font-family="system-ui,sans-serif">Afternoon</text>
  <rect x="276" y="58" width="88" height="40" fill="#37415164" stroke="#e5e7eb55" stroke-width="0.5"/>
  <text x="320.0" y="83.0" text-anchor="middle" font-size="10" fill="#111827" font-family="system-ui,sans-serif">Evening</text>
  <rect x="0" y="98" width="100" height="40" fill="#f9fafb" stroke="#e5e7eb" stroke-width="0.5"/>
  <text x="8" y="123.0" font-size="10" fill="#6b7280" font-family="system-ui,sans-serif">Wed</text>
  <rect x="100" y="98" width="88" height="40" fill="#3741517b" stroke="#e5e7eb55" stroke-width="0.5"/>
  <text x="144.0" y="123.0" text-anchor="middle" font-size="10" fill="#111827" font-family="system-ui,sans-serif">Morning</text>
  <rect x="188" y="98" width="88" height="40" fill="#374151e4" stroke="#e5e7eb55" stroke-width="0.5"/>
  <text x="232.0" y="123.0" text-anchor="middle" font-size="10" fill="#ffffff" font-family="system-ui,sans-serif">Afternoon</text>
  <rect x="276" y="98" width="88" height="40" fill="#37415135" stroke="#e5e7eb55" stroke-width="0.5"/>
  <text x="320.0" y="123.0" text-anchor="middle" font-size="10" fill="#111827" font-family="system-ui,sans-serif">Evening</text>
  <rect x="0" y="138" width="100" height="40" fill="#f9fafb" stroke="#e5e7eb" stroke-width="0.5"/>
  <text x="8" y="163.0" font-size="10" fill="#6b7280" font-family="system-ui,sans-serif">Fri</text>
  <rect x="100" y="138" width="88" height="40" fill="#3741519e" stroke="#e5e7eb55" stroke-width="0.5"/>
  <text x="144.0" y="163.0" text-anchor="middle" font-size="10" fill="#ffffff" font-family="system-ui,sans-serif">Morning</text>
  <rect x="188" y="138" width="88" height="40" fill="#37415192" stroke="#e5e7eb55" stroke-width="0.5"/>
  <text x="232.0" y="163.0" text-anchor="middle" font-size="10" fill="#ffffff" font-family="system-ui,sans-serif">Afternoon</text>
  <rect x="276" y="138" width="88" height="40" fill="#37415158" stroke="#e5e7eb55" stroke-width="0.5"/>
  <text x="320.0" y="163.0" text-anchor="middle" font-size="10" fill="#111827" font-family="system-ui,sans-serif">Evening</text>
</svg>