<svg viewBox="0 0 364 186" xmlns="http://www.w3.org/2000/svg" style="width:100%;height:auto;background:#080f10;border-radius:8px">
  <text x="182" y="20" text-anchor="middle" font-size="13" fill="#6ee7b7" font-family="system-ui,sans-serif" font-weight="600">Support Tickets by Day &amp; Shift</text>
  <rect x="0" y="30" width="100" height="28" fill="#0a1a14" stroke="#0e3020" stroke-width="0.5"/>
  <rect x="100" y="30" width="88" height="28" fill="#0a1a14" stroke="#0e3020" stroke-width="0.5"/>
  <text x="144.0" y="49.0" text-anchor="middle" font-size="10" fill="#6ee7b7" font-family="system-ui,sans-serif" font-weight="600">Morning</text>
  <rect x="188" y="30" width="88" height="28" fill="#0a1a14" stroke="#0e3020" stroke-width="0.5"/>
  <text x="232.0" y="49.0" text-anchor="middle" font-size="10" fill="#6ee7b7" font-family="system-ui,sans-serif" font-weight="600">Afternoon</text>
  <rect x="276" y="30" width="88" height="28" fill="#0a1a14" stroke="#0e3020" stroke-width="0.5"/>
  <text x="320.0" y="49.0" text-anchor="middle" font-size="10" fill="#6ee7b7" font-family="system-ui,sans-serif" font-weight="600">Evening</text>
  <rect x="0" y="58" width="100" height="40" fill="#0a1a14" stroke="#0e3020" stroke-width="0.5"/>
  <text x="8" y="83.0" font-size="10" fill="#6ee7b7" font-family="system-ui,sans-serif">Mon</text>
  <rect x="100" y="58" width="88" height="40" fill="#10b98141" stroke="#0e302055" stroke-width="0.5"/>
  <text x="144.0" y="83.0" text-anchor="middle" font-size="10" fill="#e2e8f0" font-family="system-ui,sans-serif">4</text>
  <rect x="188" y="58" width="88" height="40" fill="#10b981b5" stroke="#0e302055" stroke-width="0.5"/>
  <text x="232.0" y="83.0" text-anchor="middle" font-size="10" fill="#080f10" font-family="system-ui,sans-serif">14</text>
  <rect x="276" y="58" width="88" height="40" fill="#10b98164" stroke="#0e302055" stroke-width="0.5"/>
  <text x="320.0" y="83.0" text-anchor="middle" font-size="10" fill="#e2e8f0" font-family="system-ui,sans-serif">7</text>
  <rect x="0" y="98" width="100" height="40" fill="#0a1a14" stroke="#0e3020" stroke-width="0.5"/>
  <text x="8" y="123.0" font-size="10" fill="#6ee7b7" font-family="system-ui,sans-serif">Wed</text>
  <rect x="100" y="98" width="88" height="40" fill="#10b9817b" stroke="#0e302055" stroke-width="0.5"/>
  <text x="144.0" y="123.0" text-anchor="middle" font-size="10" fill="#e2e8f0" font-family="system-ui,sans-serif">9</text>
  <rect x="188" y="98" width="88" height="40" fill="#10b981e4" stroke="#0e302055" stroke-width="0.5"/>
  <text x="232.0" y="123.0" text-anchor="middle" font-size="10" fill="#080f10" font-family="system-ui,sans-serif">18</text>
  <rect x="276" y="98" width="88" height="40" fill="#10b98135" stroke="#0e302055" stroke-width="0.5"/>
  <text x="320.0" y="123.0" text-anchor="middle" font-size="10" fill="#e2e8f0" font-family="system-ui,sans-serif">3</text>
  <rect x="0" y="138" width="100" height="40" fill="#0a1a14" stroke="#0e3020" stroke-width="0.5"/>
  <text x="8" y="163.0" font-size="10" fill="#6ee7b7" font-family="system-ui,sans-serif">Fri</text>
  <rect x="100" y="138" width="88" height="40" fill="#10b9819e" stroke="#0e302055" stroke-width="0.5"/>
  <text x="144.0" y="163.0" text-anchor="middle" font-size="10" fill="#080f10" font-family="system-ui,sans-serif">12</text>
  <rect x="188" y="138" width="88" height="40" fill="#10b98192" stroke="#0e302055" stroke-width="0.5"/>
  <text x="232.0" y="163.0" text-anchor="middle" font-size="10" fill="#080f10" font-family="system-ui,sans-serif">11</text>
  <rect x="276" y="138" width="88" height="40" fill="#10b98158" stroke="#0e302055" stroke-width="0.5"/>
  <text x="320.0" y="163.0" text-anchor="middle" font-size="10" fill="#e2e8f0" font-family="system-ui,sans-serif">6</text>
</svg>