<svg viewBox="0 0 590 180" xmlns="http://www.w3.org/2000/svg" style="width:100%;height:auto">
    <rect width="590" height="180" fill="#080f18" rx="8"/>
    <text x="295" y="20" text-anchor="middle" font-size="13" fill="#e2e8f0" font-family="system-ui,sans-serif" font-weight="700">Skills Matrix</text><rect x="0" y="28" width="110" height="36" fill="#0d1828" stroke="#1e3050" stroke-width="0.5"/><rect x="110" y="28" width="160" height="36" fill="#3b82f628" stroke="#1e3050" stroke-width="0.5"/><text x="190" y="51" text-anchor="middle" font-size="11" fill="#3b82f6" font-family="system-ui,sans-serif" font-weight="700">Frontend</text><rect x="270" y="28" width="160" height="36" fill="#3b82f628" stroke="#1e3050" stroke-width="0.5"/><text x="350" y="51" text-anchor="middle" font-size="11" fill="#3b82f6" font-family="system-ui,sans-serif" font-weight="700">Backend</text><rect x="430" y="28" width="160" height="36" fill="#3b82f628" stroke="#1e3050" stroke-width="0.5"/><text x="510" y="51" text-anchor="middle" font-size="11" fill="#3b82f6" font-family="system-ui,sans-serif" font-weight="700">DevOps</text><rect x="0" y="64" width="110" height="36" fill="#0d1828" stroke="#1e3050" stroke-width="0.5"/><text x="8" y="87" font-size="10.5" fill="#93c5fd" font-family="system-ui,sans-serif" font-weight="600">Alice</text><rect x="110" y="64" width="160" height="36" fill="#0d1828" stroke="#1e3050" stroke-width="0.5"/><text x="190" y="87" text-anchor="middle" font-size="10.5" fill="#e2e8f0" font-family="system-ui,sans-serif">Expert</text><rect x="270" y="64" width="160" height="36" fill="#0d1828" stroke="#1e3050" stroke-width="0.5"/><text x="350" y="87" text-anchor="middle" font-size="10.5" fill="#e2e8f0" font-family="system-ui,sans-serif">Proficient</text><rect x="430" y="64" width="160" height="36" fill="#0d1828" stroke="#1e3050" stroke-width="0.5"/><text x="510" y="87" text-anchor="middle" font-size="10.5" fill="#e2e8f0" font-family="system-ui,sans-serif">Learning</text><rect x="0" y="100" width="110" height="36" fill="#080f18" stroke="#1e3050" stroke-width="0.5"/><text x="8" y="123" font-size="10.5" fill="#93c5fd" font-family="system-ui,sans-serif" font-weight="600">Bob</text><rect x="110" y="100" width="160" height="36" fill="#080f18" stroke="#1e3050" stroke-width="0.5"/><text x="190" y="123" text-anchor="middle" font-size="10.5" fill="#e2e8f0" font-family="system-ui,sans-serif">Proficient</text><rect x="270" y="100" width="160" height="36" fill="#080f18" stroke="#1e3050" stroke-width="0.5"/><text x="350" y="123" text-anchor="middle" font-size="10.5" fill="#e2e8f0" font-family="system-ui,sans-serif">Expert</text><rect x="430" y="100" width="160" height="36" fill="#080f18" stroke="#1e3050" stroke-width="0.5"/><text x="510" y="123" text-anchor="middle" font-size="10.5" fill="#e2e8f0" font-family="system-ui,sans-serif">Proficient</text><rect x="0" y="136" width="110" height="36" fill="#0d1828" stroke="#1e3050" stroke-width="0.5"/><text x="8" y="159" font-size="10.5" fill="#93c5fd" font-family="system-ui,sans-serif" font-weight="600">Carol</text><rect x="110" y="136" width="160" height="36" fill="#0d1828" stroke="#1e3050" stroke-width="0.5"/><text x="190" y="159" text-anchor="middle" font-size="10.5" fill="#e2e8f0" font-family="system-ui,sans-serif">Learning</text><rect x="270" y="136" width="160" height="36" fill="#0d1828" stroke="#1e3050" stroke-width="0.5"/><text x="350" y="159" text-anchor="middle" font-size="10.5" fill="#e2e8f0" font-family="system-ui,sans-serif">Proficient</text><rect x="430" y="136" width="160" height="36" fill="#0d1828" stroke="#1e3050" stroke-width="0.5"/><text x="510" y="159" text-anchor="middle" font-size="10.5" fill="#e2e8f0" font-family="system-ui,sans-serif">Expert</text>
  </svg>