<svg viewBox="0 0 590 180" xmlns="http://www.w3.org/2000/svg" style="width:100%;height:auto">
    <rect width="590" height="180" fill="#ffffff" rx="8"/>
    <text x="295" y="20" text-anchor="middle" font-size="13" fill="#111827" font-family="system-ui,sans-serif" font-weight="700">Skills Matrix</text><rect x="0" y="28" width="110" height="36" fill="#f9fafb" stroke="#e5e7eb" stroke-width="0.5"/><rect x="110" y="28" width="160" height="36" fill="#37415128" stroke="#e5e7eb" stroke-width="0.5"/><text x="190" y="51" text-anchor="middle" font-size="11" fill="#374151" font-family="system-ui,sans-serif" font-weight="700">A</text><rect x="270" y="28" width="160" height="36" fill="#37415128" stroke="#e5e7eb" stroke-width="0.5"/><text x="350" y="51" text-anchor="middle" font-size="11" fill="#374151" font-family="system-ui,sans-serif" font-weight="700">B</text><rect x="430" y="28" width="160" height="36" fill="#37415128" stroke="#e5e7eb" stroke-width="0.5"/><text x="510" y="51" text-anchor="middle" font-size="11" fill="#374151" font-family="system-ui,sans-serif" font-weight="700">C</text><rect x="0" y="64" width="110" height="36" fill="#f9fafb" stroke="#e5e7eb" stroke-width="0.5"/><text x="8" y="87" font-size="10.5" fill="#6b7280" font-family="system-ui,sans-serif" font-weight="600">Alice</text><rect x="110" y="64" width="160" height="36" fill="#f9fafb" stroke="#e5e7eb" stroke-width="0.5"/><text x="190" y="87" text-anchor="middle" font-size="10.5" fill="#111827" font-family="system-ui,sans-serif">Expert</text><rect x="270" y="64" width="160" height="36" fill="#f9fafb" stroke="#e5e7eb" stroke-width="0.5"/><text x="350" y="87" text-anchor="middle" font-size="10.5" fill="#111827" font-family="system-ui,sans-serif">Proficient</text><rect x="430" y="64" width="160" height="36" fill="#f9fafb" stroke="#e5e7eb" stroke-width="0.5"/><text x="510" y="87" text-anchor="middle" font-size="10.5" fill="#111827" font-family="system-ui,sans-serif">Learning</text><rect x="0" y="100" width="110" height="36" fill="#ffffff" stroke="#e5e7eb" stroke-width="0.5"/><text x="8" y="123" font-size="10.5" fill="#6b7280" font-family="system-ui,sans-serif" font-weight="600">Bob</text><rect x="110" y="100" width="160" height="36" fill="#ffffff" stroke="#e5e7eb" stroke-width="0.5"/><text x="190" y="123" text-anchor="middle" font-size="10.5" fill="#111827" font-family="system-ui,sans-serif">Proficient</text><rect x="270" y="100" width="160" height="36" fill="#ffffff" stroke="#e5e7eb" stroke-width="0.5"/><text x="350" y="123" text-anchor="middle" font-size="10.5" fill="#111827" font-family="system-ui,sans-serif">Expert</text><rect x="430" y="100" width="160" height="36" fill="#ffffff" stroke="#e5e7eb" stroke-width="0.5"/><text x="510" y="123" text-anchor="middle" font-size="10.5" fill="#111827" font-family="system-ui,sans-serif">Proficient</text><rect x="0" y="136" width="110" height="36" fill="#f9fafb" stroke="#e5e7eb" stroke-width="0.5"/><text x="8" y="159" font-size="10.5" fill="#6b7280" font-family="system-ui,sans-serif" font-weight="600">Carol</text><rect x="110" y="136" width="160" height="36" fill="#f9fafb" stroke="#e5e7eb" stroke-width="0.5"/><text x="190" y="159" text-anchor="middle" font-size="10.5" fill="#111827" font-family="system-ui,sans-serif">Learning</text><rect x="270" y="136" width="160" height="36" fill="#f9fafb" stroke="#e5e7eb" stroke-width="0.5"/><text x="350" y="159" text-anchor="middle" font-size="10.5" fill="#111827" font-family="system-ui,sans-serif">Proficient</text><rect x="430" y="136" width="160" height="36" fill="#f9fafb" stroke="#e5e7eb" stroke-width="0.5"/><text x="510" y="159" text-anchor="middle" font-size="10.5" fill="#111827" font-family="system-ui,sans-serif">Expert</text>
  </svg>