<svg viewBox="0 0 640 520" xmlns="http://www.w3.org/2000/svg" style="width:100%;height:auto;background:#fffbeb;border-radius:8px">
  <line x1="320.0" y1="260.0" x2="320.0" y2="105.0" stroke="#f59e0b55" stroke-width="2"/>
  <line x1="320.0" y1="105.0" x2="300.7" y2="29.4" stroke="#fef3c7" stroke-width="1" opacity="0.8"/>
  <line x1="320.0" y1="105.0" x2="339.3" y2="29.4" stroke="#fef3c7" stroke-width="1" opacity="0.8"/>
  <line x1="320.0" y1="260.0" x2="454.2" y2="337.5" stroke="#f59e0b55" stroke-width="2"/>
  <line x1="454.2" y1="337.5" x2="529.3" y2="358.6" stroke="#fef3c7" stroke-width="1" opacity="0.8"/>
  <line x1="454.2" y1="337.5" x2="510.0" y2="392.0" stroke="#fef3c7" stroke-width="1" opacity="0.8"/>
  <line x1="320.0" y1="260.0" x2="185.8" y2="337.5" stroke="#f59e0b55" stroke-width="2"/>
  <line x1="185.8" y1="337.5" x2="130.0" y2="392.0" stroke="#fef3c7" stroke-width="1" opacity="0.8"/>
  <line x1="185.8" y1="337.5" x2="110.7" y2="358.6" stroke="#fef3c7" stroke-width="1" opacity="0.8"/>
  <ellipse cx="320" cy="260" rx="64" ry="24" fill="#ffffff" stroke="#f59e0b" stroke-width="1.5"/>
  <ellipse cx="320.0" cy="105.0" rx="50" ry="20" fill="#ffffff" stroke="#f59e0b88" stroke-width="1"/>
  <circle cx="300.7" cy="29.4" r="20" fill="#ffffff" stroke="#fef3c755" stroke-width="1"/>
  <circle cx="339.3" cy="29.4" r="20" fill="#ffffff" stroke="#fef3c755" stroke-width="1"/>
  <ellipse cx="454.2" cy="337.5" rx="50" ry="20" fill="#ffffff" stroke="#f59e0b88" stroke-width="1"/>
  <circle cx="529.3" cy="358.6" r="20" fill="#ffffff" stroke="#fef3c755" stroke-width="1"/>
  <circle cx="510.0" cy="392.0" r="20" fill="#ffffff" stroke="#fef3c755" stroke-width="1"/>
  <ellipse cx="185.8" cy="337.5" rx="50" ry="20" fill="#ffffff" stroke="#f59e0b88" stroke-width="1"/>
  <circle cx="130.0" cy="392.0" r="20" fill="#ffffff" stroke="#fef3c755" stroke-width="1"/>
  <circle cx="110.7" cy="358.6" r="20" fill="#ffffff" stroke="#fef3c755" stroke-width="1"/>
  <text x="320" y="264" text-anchor="middle" font-size="12" fill="#451a03" font-family="system-ui,sans-serif" font-weight="600">Product</text>
  <text x="320.0" y="109.0" text-anchor="middle" font-size="10" fill="#451a03" font-family="system-ui,sans-serif">Mobile</text>
  <text x="300.7" y="32.4" text-anchor="middle" font-size="9" fill="#b45309" font-family="system-ui,sans-serif">iOS</text>
  <text x="339.3" y="32.4" text-anchor="middle" font-size="9" fill="#b45309" font-family="system-ui,sans-serif">Android</text>
  <text x="454.2" y="341.5" text-anchor="middle" font-size="10" fill="#451a03" font-family="system-ui,sans-serif">Web</text>
  <text x="529.3" y="361.6" text-anchor="middle" font-size="9" fill="#b45309" font-family="system-ui,sans-serif">Dashboard</text>
  <text x="510.0" y="395.0" text-anchor="middle" font-size="9" fill="#b45309" font-family="system-ui,sans-serif">API</text>
  <text x="185.8" y="341.5" text-anchor="middle" font-size="10" fill="#451a03" font-family="system-ui,sans-serif">Platform</text>
  <text x="130.0" y="395.0" text-anchor="middle" font-size="9" fill="#b45309" font-family="system-ui,sans-serif">Auth</text>
  <text x="110.7" y="361.6" text-anchor="middle" font-size="9" fill="#b45309" font-family="system-ui,sans-serif">Billing</text>
</svg>