<svg viewBox="0 0 460 349" xmlns="http://www.w3.org/2000/svg" style="width:100%;height:auto">
    <rect width="460" height="349" fill="#f0fdff" rx="8"/>
    <text x="16" y="32" font-size="13" fill="#083344" font-family="system-ui,sans-serif" font-weight="700">Deploy Checklist</text><rect x="16" y="51" width="22" height="22" rx="4" fill="#0e7490" /><text x="27" y="66" text-anchor="middle" font-size="11" fill="#083344" font-family="system-ui,sans-serif" font-weight="700">1</text><text x="46" y="66" font-size="12" fill="#083344" font-family="system-ui,sans-serif" font-weight="600">Run tests</text><text x="46" y="82" font-size="11" fill="#0e7490" font-family="system-ui,sans-serif" font-style="italic">Gate before we build anything</text><rect x="32" y="91" width="14" height="14" rx="3" fill="#0e7490" fill-opacity="0.6" /><text x="39" y="101" text-anchor="middle" font-size="9" fill="#083344" font-family="system-ui,sans-serif" font-weight="700">a</text><text x="52" y="102" font-size="11" fill="#083344" fill-opacity="0.85" font-family="system-ui,sans-serif">unit</text><rect x="32" y="108" width="14" height="14" rx="3" fill="#0e7490" fill-opacity="0.6" /><text x="39" y="118" text-anchor="middle" font-size="9" fill="#083344" font-family="system-ui,sans-serif" font-weight="700">b</text><text x="52" y="119" font-size="11" fill="#083344" fill-opacity="0.85" font-family="system-ui,sans-serif">integration</text><rect x="32" y="125" width="14" height="14" rx="3" fill="#0e7490" fill-opacity="0.6" /><text x="39" y="135" text-anchor="middle" font-size="9" fill="#083344" font-family="system-ui,sans-serif" font-weight="700">c</text><text x="52" y="136" font-size="11" fill="#083344" fill-opacity="0.85" font-family="system-ui,sans-serif">smoke</text><line x1="16" y1="146" x2="444" y2="146" stroke="#a5f3fc" stroke-width="0.5" /><rect x="16" y="153" width="22" height="22" rx="4" fill="#0d7b99" /><text x="27" y="168" text-anchor="middle" font-size="11" fill="#083344" font-family="system-ui,sans-serif" font-weight="700">2</text><text x="46" y="168" font-size="12" fill="#083344" font-family="system-ui,sans-serif" font-weight="600">Build client</text><rect x="32" y="183" width="14" height="14" rx="3" fill="#0d7b99" fill-opacity="0.6" /><text x="39" y="193" text-anchor="middle" font-size="9" fill="#083344" font-family="system-ui,sans-serif" font-weight="700">a</text><text x="52" y="194" font-size="11" fill="#083344" fill-opacity="0.85" font-family="system-ui,sans-serif">tsc --noEmit</text><rect x="32" y="200" width="14" height="14" rx="3" fill="#0d7b99" fill-opacity="0.6" /><text x="39" y="210" text-anchor="middle" font-size="9" fill="#083344" font-family="system-ui,sans-serif" font-weight="700">b</text><text x="52" y="211" font-size="11" fill="#083344" fill-opacity="0.85" font-family="system-ui,sans-serif">esbuild bundle</text><line x1="16" y1="221" x2="444" y2="221" stroke="#a5f3fc" stroke-width="0.5" /><rect x="16" y="228" width="22" height="22" rx="4" fill="#0b83a1" /><text x="27" y="243" text-anchor="middle" font-size="11" fill="#083344" font-family="system-ui,sans-serif" font-weight="700">3</text><text x="46" y="243" font-size="12" fill="#083344" font-family="system-ui,sans-serif" font-weight="600">Build server</text><line x1="16" y1="253" x2="444" y2="253" stroke="#a5f3fc" stroke-width="0.5" /><rect x="16" y="260" width="22" height="22" rx="4" fill="#0a8aaa" /><text x="27" y="275" text-anchor="middle" font-size="11" fill="#083344" font-family="system-ui,sans-serif" font-weight="700">4</text><text x="46" y="275" font-size="12" fill="#083344" font-family="system-ui,sans-serif" font-weight="600">Restart service</text><text x="46" y="291" font-size="11" fill="#0e7490" font-family="system-ui,sans-serif" font-style="italic">Rolling restart across the fleet</text><line x1="16" y1="301" x2="444" y2="301" stroke="#a5f3fc" stroke-width="0.5" /><rect x="16" y="308" width="22" height="22" rx="4" fill="#0891b2" /><text x="27" y="323" text-anchor="middle" font-size="11" fill="#083344" font-family="system-ui,sans-serif" font-weight="700">5</text><text x="46" y="323" font-size="12" fill="#083344" font-family="system-ui,sans-serif" font-weight="600">Confirm health check</text>
  </svg>