<svg viewBox="0 0 520 226" xmlns="http://www.w3.org/2000/svg" style="width:100%;height:auto;background:#ffffff;border-radius:8px">
  <text x="260" y="20" text-anchor="middle" font-size="13" fill="#6b7280" font-family="system-ui,sans-serif" font-weight="600">Sales vs Target</text>
  <rect x="166" y="44" width="306" height="18" rx="3" fill="#d1d5db40"/>
  <rect x="166" y="44" width="214.2" height="18" rx="3" fill="#d1d5db5a"/>
  <rect x="166" y="44" width="122.4" height="18" rx="3" fill="#d1d5db80"/>
  <rect x="166" y="47.6" width="238.7" height="10.8" rx="2" fill="#6b7280"/>
  <text x="150" y="57.0" text-anchor="end" font-size="11" fill="#111827" font-family="system-ui,sans-serif">Revenue</text>
  <text x="480" y="57.0" font-size="10" fill="#6b7280" font-family="system-ui,sans-serif">78%</text>
  <rect x="166" y="90" width="306" height="18" rx="3" fill="#d1d5db40"/>
  <rect x="166" y="90" width="214.2" height="18" rx="3" fill="#d1d5db5a"/>
  <rect x="166" y="90" width="122.4" height="18" rx="3" fill="#d1d5db80"/>
  <rect x="166" y="93.6" width="189.7" height="10.8" rx="2" fill="#fbbf24"/>
  <text x="150" y="103.0" text-anchor="end" font-size="11" fill="#111827" font-family="system-ui,sans-serif">Pipeline</text>
  <text x="480" y="103.0" font-size="10" fill="#6b7280" font-family="system-ui,sans-serif">62%</text>
  <rect x="166" y="136" width="306" height="18" rx="3" fill="#d1d5db40"/>
  <rect x="166" y="136" width="214.2" height="18" rx="3" fill="#d1d5db5a"/>
  <rect x="166" y="136" width="122.4" height="18" rx="3" fill="#d1d5db80"/>
  <rect x="166" y="139.6" width="278.5" height="10.8" rx="2" fill="#6b7280"/>
  <text x="150" y="149.0" text-anchor="end" font-size="11" fill="#111827" font-family="system-ui,sans-serif">Deals Closed</text>
  <text x="480" y="149.0" font-size="10" fill="#6b7280" font-family="system-ui,sans-serif">91%</text>
  <rect x="166" y="182" width="306" height="18" rx="3" fill="#d1d5db40"/>
  <rect x="166" y="182" width="214.2" height="18" rx="3" fill="#d1d5db5a"/>
  <rect x="166" y="182" width="122.4" height="18" rx="3" fill="#d1d5db80"/>
  <rect x="166" y="185.6" width="269.3" height="10.8" rx="2" fill="#6b7280"/>
  <text x="150" y="195.0" text-anchor="end" font-size="11" fill="#111827" font-family="system-ui,sans-serif">Retention</text>
  <text x="480" y="195.0" font-size="10" fill="#6b7280" font-family="system-ui,sans-serif">88%</text>
</svg>