<svg viewBox="0 0 500 104" xmlns="http://www.w3.org/2000/svg" style="width:100%;height:auto">
    <rect width="500" height="104" fill="#080f10" rx="8"/>
    <rect x="0.0" y="8.0" width="161.3" height="88" rx="7" fill="#0a1a14" stroke="#10b98166" stroke-width="1.2"/>
    <path d="M7.0,8.0 Q0.0,8.0 0.0,15.0 L0.0,40.0 L161.3,40.0 L161.3,15.0 Q161.3,8.0 154.3,8.0 Z" fill="#10b981"/>
    <text x="80.7" y="28.0" text-anchor="middle" font-size="11" fill="#fff" font-family="system-ui,sans-serif" font-weight="700">Design</text>
    <text x="80.7" y="60.0" text-anchor="middle" font-size="10" fill="#6ee7b7" font-family="system-ui,sans-serif">UI/UX</text>
    <text x="80.7" y="80.0" text-anchor="middle" font-size="10" fill="#6ee7b7" font-family="system-ui,sans-serif">Figma</text>
    <rect x="169.3" y="8.0" width="161.3" height="88" rx="7" fill="#0a1a14" stroke="#0ba87566" stroke-width="1.2"/>
    <path d="M176.3,8.0 Q169.3,8.0 169.3,15.0 L169.3,40.0 L330.7,40.0 L330.7,15.0 Q330.7,8.0 323.7,8.0 Z" fill="#0ba875"/>
    <text x="250.0" y="28.0" text-anchor="middle" font-size="11" fill="#fff" font-family="system-ui,sans-serif" font-weight="700">Engineering</text>
    <text x="250.0" y="60.0" text-anchor="middle" font-size="10" fill="#6ee7b7" font-family="system-ui,sans-serif">Frontend</text>
    <text x="250.0" y="80.0" text-anchor="middle" font-size="10" fill="#6ee7b7" font-family="system-ui,sans-serif">Backend</text>
    <rect x="338.7" y="8.0" width="161.3" height="88" rx="7" fill="#0a1a14" stroke="#05966966" stroke-width="1.2"/>
    <path d="M345.7,8.0 Q338.7,8.0 338.7,15.0 L338.7,40.0 L500.0,40.0 L500.0,15.0 Q500.0,8.0 493.0,8.0 Z" fill="#059669"/>
    <text x="419.3" y="28.0" text-anchor="middle" font-size="11" fill="#fff" font-family="system-ui,sans-serif" font-weight="700">Growth</text>
    <text x="419.3" y="60.0" text-anchor="middle" font-size="10" fill="#6ee7b7" font-family="system-ui,sans-serif">Marketing</text>
    <text x="419.3" y="80.0" text-anchor="middle" font-size="10" fill="#6ee7b7" font-family="system-ui,sans-serif">Sales</text>
  </svg>