<svg viewBox="0 0 460 222" xmlns="http://www.w3.org/2000/svg" style="width:100%;height:auto">
    <rect width="460" height="222" fill="#f0fdff" rx="8"/>
    <rect x="16" y="26" width="18" height="18" rx="3" fill="none" stroke="#0891b2" stroke-width="1.5" /><polyline points="20,35 24,39 30,31" fill="none" stroke="#06b6d4" stroke-width="2" stroke-linecap="round" /><text x="42" y="39" font-size="12" fill="#083344" fill-opacity="0.62" font-family="system-ui,sans-serif" font-style="italic">Set up CI/CD pipeline</text><line x1="16" y1="54" x2="444" y2="54" stroke="#a5f3fc" stroke-width="0.5" /><rect x="16" y="64" width="18" height="18" rx="3" fill="none" stroke="#0891b2" stroke-width="1.5" /><polyline points="20,73 24,77 30,69" fill="none" stroke="#06b6d4" stroke-width="2" stroke-linecap="round" /><text x="42" y="77" font-size="12" fill="#083344" fill-opacity="0.62" font-family="system-ui,sans-serif" font-style="italic">Write unit tests</text><line x1="16" y1="92" x2="444" y2="92" stroke="#a5f3fc" stroke-width="0.5" /><rect x="16" y="102" width="18" height="18" rx="3" fill="none" stroke="#0891b2" stroke-width="1.5" /><polyline points="20,111 24,115 30,107" fill="none" stroke="#06b6d4" stroke-width="2" stroke-linecap="round" /><text x="42" y="115" font-size="12" fill="#083344" fill-opacity="0.62" font-family="system-ui,sans-serif" font-style="italic">Add integration tests</text><line x1="16" y1="130" x2="444" y2="130" stroke="#a5f3fc" stroke-width="0.5" /><rect x="16" y="140" width="18" height="18" rx="3" fill="none" stroke="#0891b2" stroke-width="1.5" /><text x="42" y="153" font-size="12" fill="#083344" font-family="system-ui,sans-serif">Performance profiling</text><line x1="16" y1="168" x2="444" y2="168" stroke="#a5f3fc" stroke-width="0.5" /><rect x="16" y="178" width="18" height="18" rx="3" fill="none" stroke="#0891b2" stroke-width="1.5" /><text x="42" y="191" font-size="12" fill="#083344" font-family="system-ui,sans-serif">Security audit</text>
  </svg>