<svg viewBox="0 0 480 211" xmlns="http://www.w3.org/2000/svg" style="width:100%;height:auto">
    <rect width="480" height="211" fill="#f0fdff" rx="8"/>
    <rect x="16" y="24" width="18" height="18" rx="3" fill="none" stroke="#0891b2" stroke-width="1.5" /><polyline points="20,33 24,37 30,29" fill="none" stroke="#06b6d4" stroke-width="2" stroke-linecap="round" /><text x="42" y="36" font-size="12" font-family="system-ui,sans-serif" fill="#083344" fill-opacity="0.62" font-style="italic">Set up CI/CD pipeline</text><line x1="16" y1="50.0" x2="464" y2="50.0" stroke="#a5f3fc" stroke-width="0.5" /><rect x="16" y="61" width="18" height="18" rx="3" fill="none" stroke="#0891b2" stroke-width="1.5" /><polyline points="20,70 24,74 30,66" fill="none" stroke="#06b6d4" stroke-width="2" stroke-linecap="round" /><text x="42" y="73" font-size="12" font-family="system-ui,sans-serif" fill="#083344" fill-opacity="0.62" font-style="italic">Write unit tests</text><line x1="16" y1="87.0" x2="464" y2="87.0" stroke="#a5f3fc" stroke-width="0.5" /><rect x="16" y="98" width="18" height="18" rx="3" fill="none" stroke="#0891b2" stroke-width="1.5" /><polyline points="20,107 24,111 30,103" fill="none" stroke="#06b6d4" stroke-width="2" stroke-linecap="round" /><text x="42" y="110" font-size="12" font-family="system-ui,sans-serif" fill="#083344" fill-opacity="0.62" font-style="italic">Add integration tests</text><line x1="16" y1="124.0" x2="464" y2="124.0" stroke="#a5f3fc" stroke-width="0.5" /><rect x="16" y="135" width="18" height="18" rx="3" fill="none" stroke="#0891b2" stroke-width="1.5" /><text x="42" y="147" font-size="12" font-family="system-ui,sans-serif" fill="#083344">Performance profiling</text><line x1="16" y1="161.0" x2="464" y2="161.0" stroke="#a5f3fc" stroke-width="0.5" /><rect x="16" y="172" width="18" height="18" rx="3" fill="none" stroke="#0891b2" stroke-width="1.5" /><text x="42" y="184" font-size="12" font-family="system-ui,sans-serif" fill="#083344">Security audit</text>
  </svg>