<svg viewBox="0 0 600 170" xmlns="http://www.w3.org/2000/svg" style="width:100%;height:auto;background:#f0f9ff;border-radius:8px">
  <text x="300" y="20" text-anchor="middle" font-size="13" fill="#0369a1" font-family="system-ui,sans-serif" font-weight="600">Domain Model</text>
  <rect x="22.5" y="42.0" width="170" height="100" rx="5" fill="#ffffff" stroke="#0ea5e977" stroke-width="1.5"/>
  <path d="M27.5,42.0 L187.5,42.0 Q192.5,42.0 192.5,47.0 L192.5,72.0 L22.5,72.0 L22.5,47.0 Q22.5,42.0 27.5,42.0 Z" fill="#0ea5e922"/>
  <text x="107.5" y="53.0" text-anchor="middle" font-size="8" fill="#0ea5e999" font-family="system-ui,sans-serif">«abstract»</text>
  <text x="107.5" y="66.0" text-anchor="middle" font-size="12" fill="#082f49" font-family="ui-monospace,monospace" font-weight="700" font-style="italic">Animal</text>
  <line x1="22.5" y1="72.0" x2="192.5" y2="72.0" stroke="#0ea5e944" stroke-width="1"/>
  <text x="29.5" y="85.0" font-size="10" fill="#0369a1cc" font-family="ui-monospace,monospace">+ name</text>
  <text x="29.5" y="103.0" font-size="10" fill="#0369a1cc" font-family="ui-monospace,monospace">+ species</text>
  <line x1="22.5" y1="111.0" x2="192.5" y2="111.0" stroke="#bae6fd" stroke-width="0.8"/>
  <text x="29.5" y="127.0" font-size="10" fill="#0284c7cc" font-family="ui-monospace,monospace">+ speak()</text>
  <rect x="215.0" y="42.0" width="170" height="100" rx="5" fill="#ffffff" stroke="#0ea5e977" stroke-width="1.5"/>
  <path d="M220.0,42.0 L380.0,42.0 Q385.0,42.0 385.0,47.0 L385.0,72.0 L215.0,72.0 L215.0,47.0 Q215.0,42.0 220.0,42.0 Z" fill="#0ea5e922"/>
  <text x="300.0" y="61.0" text-anchor="middle" font-size="12" fill="#082f49" font-family="ui-monospace,monospace" font-weight="700">Dog</text>
  <line x1="215.0" y1="72.0" x2="385.0" y2="72.0" stroke="#0ea5e944" stroke-width="1"/>
  <text x="222.0" y="85.0" font-size="10" fill="#0369a1cc" font-family="ui-monospace,monospace">- breed</text>
  <line x1="215.0" y1="93.0" x2="385.0" y2="93.0" stroke="#bae6fd" stroke-width="0.8"/>
  <text x="222.0" y="109.0" font-size="10" fill="#0284c7cc" font-family="ui-monospace,monospace">+ speak()</text>
  <text x="222.0" y="127.0" font-size="10" fill="#0284c7cc" font-family="ui-monospace,monospace">+ fetch()</text>
  <rect x="407.5" y="42.0" width="170" height="76" rx="5" fill="#ffffff" stroke="#0ea5e977" stroke-width="1.5"/>
  <path d="M412.5,42.0 L572.5,42.0 Q577.5,42.0 577.5,47.0 L577.5,72.0 L407.5,72.0 L407.5,47.0 Q407.5,42.0 412.5,42.0 Z" fill="#0ea5e922"/>
  <text x="492.5" y="53.0" text-anchor="middle" font-size="8" fill="#0ea5e999" font-family="system-ui,sans-serif">«interface»</text>
  <text x="492.5" y="66.0" text-anchor="middle" font-size="12" fill="#082f49" font-family="ui-monospace,monospace" font-weight="700" font-style="italic">Cat</text>
  <line x1="407.5" y1="72.0" x2="577.5" y2="72.0" stroke="#0ea5e944" stroke-width="1"/>
  <text x="414.5" y="85.0" font-size="10" fill="#0284c7cc" font-family="ui-monospace,monospace">+ purr()</text>
  <text x="414.5" y="103.0" font-size="10" fill="#0284c7cc" font-family="ui-monospace,monospace">+ scratch()</text>
</svg>