<svg viewBox="0 0 540 170" xmlns="http://www.w3.org/2000/svg" style="width:100%;height:auto">
    <rect width="540" height="170" fill="#ffffff" rx="8"/>
    <rect x="0" y="12" width="120" height="44" fill="#f9fafb" /><text x="60" y="39" text-anchor="middle" font-size="11" fill="#6b7280" font-family="system-ui,sans-serif" font-weight="600">Feature</text><rect x="120" y="12" width="140" height="44" fill="#1e3a8a" /><text x="190" y="39" text-anchor="middle" font-size="12" fill="#bfdbfe" font-family="system-ui,sans-serif" font-weight="700">Feature</text><rect x="260" y="12" width="140" height="44" fill="#1e44b1" /><text x="330" y="39" text-anchor="middle" font-size="12" fill="#bfdbfe" font-family="system-ui,sans-serif" font-weight="700">Storage</text><rect x="400" y="12" width="140" height="44" fill="#1d4ed8" /><text x="470" y="39" text-anchor="middle" font-size="12" fill="#bfdbfe" font-family="system-ui,sans-serif" font-weight="700">Support</text><rect x="0" y="56" width="540" height="34" fill="#f9fafb" /><text x="12" y="78" font-size="11" fill="#6b7280" font-family="system-ui,sans-serif">Starter</text><text x="190" y="78" text-anchor="middle" font-size="11" fill="#111827" font-family="system-ui,sans-serif">Basic</text><text x="330" y="78" text-anchor="middle" font-size="11" fill="#111827" font-family="system-ui,sans-serif">10 GB</text><text x="470" y="78" text-anchor="middle" font-size="11" fill="#111827" font-family="system-ui,sans-serif">Community</text><line x1="0" y1="90" x2="540" y2="90" stroke="#e5e7eb" stroke-width="0.5" /><rect x="0" y="90" width="540" height="34" fill="#ffffff" /><text x="12" y="112" font-size="11" fill="#6b7280" font-family="system-ui,sans-serif">Pro</text><text x="190" y="112" text-anchor="middle" font-size="11" fill="#111827" font-family="system-ui,sans-serif">Advanced</text><text x="330" y="112" text-anchor="middle" font-size="11" fill="#111827" font-family="system-ui,sans-serif">100 GB</text><text x="470" y="112" text-anchor="middle" font-size="11" fill="#111827" font-family="system-ui,sans-serif">Email</text><line x1="0" y1="124" x2="540" y2="124" stroke="#e5e7eb" stroke-width="0.5" /><rect x="0" y="124" width="540" height="34" fill="#f9fafb" /><text x="12" y="146" font-size="11" fill="#6b7280" font-family="system-ui,sans-serif">Enterprise</text><text x="190" y="146" text-anchor="middle" font-size="11" fill="#111827" font-family="system-ui,sans-serif">Custom</text><text x="330" y="146" text-anchor="middle" font-size="11" fill="#111827" font-family="system-ui,sans-serif">Unlimited</text><text x="470" y="146" text-anchor="middle" font-size="11" fill="#111827" font-family="system-ui,sans-serif">Dedicated</text><line x1="0" y1="158" x2="540" y2="158" stroke="#e5e7eb" stroke-width="0.5" /><line x1="120" y1="12" x2="120" y2="158" stroke="#e5e7eb" stroke-width="0.5" /><line x1="260" y1="12" x2="260" y2="158" stroke="#e5e7eb" stroke-width="0.5" /><line x1="400" y1="12" x2="400" y2="158" stroke="#e5e7eb" stroke-width="0.5" /><line x1="540" y1="12" x2="540" y2="158" stroke="#e5e7eb" stroke-width="0.5" /><line x1="120" y1="12" x2="120" y2="158" stroke="#e5e7eb" stroke-width="1" />
  </svg>