<svg viewBox="0 0 520 164" xmlns="http://www.w3.org/2000/svg" style="width:100%;height:auto">
    <rect width="520" height="164" fill="#eff6ff" rx="8"/>
    <rect x="0" y="12" width="130" height="32" fill="#ffffff" /><text x="65" y="33" text-anchor="middle" font-size="11" fill="#1e40af" font-family="system-ui,sans-serif" font-weight="600">Field</text><rect x="130" y="12" width="130" height="32" fill="#ffffff" /><text x="195" y="33" text-anchor="middle" font-size="11" fill="#1e40af" font-family="system-ui,sans-serif" font-weight="600">Starter</text><rect x="260" y="12" width="130" height="32" fill="#ffffff" /><text x="325" y="33" text-anchor="middle" font-size="11" fill="#1e40af" font-family="system-ui,sans-serif" font-weight="600">Pro</text><rect x="390" y="12" width="130" height="32" fill="#ffffff" /><text x="455" y="33" text-anchor="middle" font-size="11" fill="#1e40af" font-family="system-ui,sans-serif" font-weight="600">Enterprise</text><rect x="0" y="44" width="130" height="36" fill="#1e3a8a" /><text x="65" y="67" text-anchor="middle" font-size="12" fill="#bfdbfe" font-family="system-ui,sans-serif" font-weight="700">Feature</text><rect x="130" y="44" width="390" height="36" fill="#ffffff" /><text x="195" y="67" text-anchor="middle" font-size="11" fill="#172554" font-family="system-ui,sans-serif">Basic</text><text x="325" y="67" text-anchor="middle" font-size="11" fill="#172554" font-family="system-ui,sans-serif">Advanced</text><text x="455" y="67" text-anchor="middle" font-size="11" fill="#172554" font-family="system-ui,sans-serif">Custom</text><line x1="0" y1="80" x2="520" y2="80" stroke="#bfdbfe" stroke-width="0.5" /><rect x="0" y="80" width="130" height="36" fill="#1e44b1" /><text x="65" y="103" text-anchor="middle" font-size="12" fill="#bfdbfe" font-family="system-ui,sans-serif" font-weight="700">Storage</text><rect x="130" y="80" width="390" height="36" fill="#eff6ff" /><text x="195" y="103" text-anchor="middle" font-size="11" fill="#172554" font-family="system-ui,sans-serif">10 GB</text><text x="325" y="103" text-anchor="middle" font-size="11" fill="#172554" font-family="system-ui,sans-serif">100 GB</text><text x="455" y="103" text-anchor="middle" font-size="11" fill="#172554" font-family="system-ui,sans-serif">Unlimited</text><line x1="0" y1="116" x2="520" y2="116" stroke="#bfdbfe" stroke-width="0.5" /><rect x="0" y="116" width="130" height="36" fill="#1d4ed8" /><text x="65" y="139" text-anchor="middle" font-size="12" fill="#bfdbfe" font-family="system-ui,sans-serif" font-weight="700">Support</text><rect x="130" y="116" width="390" height="36" fill="#ffffff" /><text x="195" y="139" text-anchor="middle" font-size="11" fill="#172554" font-family="system-ui,sans-serif">Community</text><text x="325" y="139" text-anchor="middle" font-size="11" fill="#172554" font-family="system-ui,sans-serif">Email</text><text x="455" y="139" text-anchor="middle" font-size="11" fill="#172554" font-family="system-ui,sans-serif">Dedicated</text><line x1="0" y1="152" x2="520" y2="152" stroke="#bfdbfe" stroke-width="0.5" /><line x1="130" y1="12" x2="130" y2="152" stroke="#bfdbfe" stroke-width="0.5" /><line x1="260" y1="12" x2="260" y2="152" stroke="#bfdbfe" stroke-width="0.5" /><line x1="390" y1="12" x2="390" y2="152" stroke="#bfdbfe" stroke-width="0.5" /><line x1="520" y1="12" x2="520" y2="152" stroke="#bfdbfe" stroke-width="0.5" /><line x1="130" y1="12" x2="130" y2="152" stroke="#bfdbfe" stroke-width="1" />
  </svg>