<svg viewBox="0 0 500 400" xmlns="http://www.w3.org/2000/svg" style="width:100%;height:auto">
    <rect width="500" height="400" fill="#faf5ff" rx="8"/>
    <defs>
    <marker id="cycle-arr" markerWidth="8" markerHeight="8" refX="6" refY="3" orient="auto">
      <path d="M0,0 L7,3 L0,6 Z" fill="#ede9fe"/>
    </marker>
  </defs><path d="M304.5,71.1 A140,140 0 0,1 387.2,172.2" fill="none" stroke="#6d28d9" stroke-width="1.5" stroke-dasharray="4,2" marker-end="url(#cycle-arr)"/><path d="M387.2,227.8 A140,140 0 0,1 304.5,328.9" fill="none" stroke="#722ee0" stroke-width="1.5" stroke-dasharray="4,2" marker-end="url(#cycle-arr)"/><path d="M195.5,328.9 A140,140 0 0,1 112.8,227.8" fill="none" stroke="#7734e6" stroke-width="1.5" stroke-dasharray="4,2" marker-end="url(#cycle-arr)"/><path d="M112.8,172.2 A140,140 0 0,1 195.5,71.1" fill="none" stroke="#7c3aed" stroke-width="1.5" stroke-dasharray="4,2" marker-end="url(#cycle-arr)"/><rect x="200.0" y="38.0" width="100" height="44" rx="6" fill="#6d28d9"/><text x="250.0" y="65.0" text-anchor="middle" font-size="11" fill="#2e1065" font-family="system-ui,sans-serif" font-weight="600">Plan</text><rect x="340.0" y="178.0" width="100" height="44" rx="6" fill="#722ee0"/><text x="390.0" y="205.0" text-anchor="middle" font-size="11" fill="#2e1065" font-family="system-ui,sans-serif" font-weight="600">Execute</text><rect x="200.0" y="318.0" width="100" height="44" rx="6" fill="#7734e6"/><text x="250.0" y="345.0" text-anchor="middle" font-size="11" fill="#2e1065" font-family="system-ui,sans-serif" font-weight="600">Measure</text><rect x="60.0" y="178.0" width="100" height="44" rx="6" fill="#7c3aed"/><text x="110.0" y="205.0" text-anchor="middle" font-size="11" fill="#2e1065" font-family="system-ui,sans-serif" font-weight="600">Learn</text>
  </svg>