<svg viewBox="0 0 640 290" xmlns="http://www.w3.org/2000/svg" style="width:100%;height:auto;background:#fffbeb;border-radius:8px">
  
  <path d="M320.0,46.0 C320.0,70.5 106.7,70.5 106.7,95.0" fill="none" stroke="#b45309cc" stroke-width="1.5"/>
  <text x="195.3" y="70.5" font-size="9" fill="#d97706" font-family="system-ui,sans-serif" font-weight="700">Yes</text>
  <path d="M320.0,46.0 C320.0,68.0 426.7,68.0 426.7,90.0" fill="none" stroke="#b45309cc" stroke-width="1.5"/>
  <text x="385.3" y="68.0" font-size="9" fill="#b45309" font-family="system-ui,sans-serif" font-weight="700">No</text>
  <path d="M426.7,126.0 C426.7,150.5 320.0,150.5 320.0,175.0" fill="none" stroke="#b45309cc" stroke-width="1.5"/>
  <text x="355.3" y="150.5" font-size="9" fill="#d97706" font-family="system-ui,sans-serif" font-weight="700">Yes</text>
  <path d="M426.7,126.0 C426.7,150.5 533.3,150.5 533.3,175.0" fill="none" stroke="#b45309cc" stroke-width="1.5"/>
  <text x="492.0" y="150.5" font-size="9" fill="#b45309" font-family="system-ui,sans-serif" font-weight="700">No</text>
  <polygon points="320,10.0 374.0,28 320,46.0 266.0,28" fill="#ffffff" stroke="#d97706aa" stroke-width="1.5"/>
  <text x="320" y="32.0" text-anchor="middle" font-size="9.5" fill="#451a03" font-family="system-ui,sans-serif" font-weight="600">Urgent?</text>
  <rect x="61.7" y="95.0" width="90" height="26" rx="5" fill="#ffffff" stroke="#f59e0b88" stroke-width="1.2"/>
  <text x="106.7" y="112.0" text-anchor="middle" font-size="10" fill="#451a03" font-family="system-ui,sans-serif">Do Now</text>
  <polygon points="426.66666666666663,90.0 480.7,108 426.66666666666663,126.0 372.7,108" fill="#ffffff" stroke="#d97706aa" stroke-width="1.5"/>
  <text x="426.66666666666663" y="112.0" text-anchor="middle" font-size="9.5" fill="#451a03" font-family="system-ui,sans-serif" font-weight="600">Important?</text>
  <rect x="275.0" y="175.0" width="90" height="26" rx="5" fill="#ffffff" stroke="#f59e0b88" stroke-width="1.2"/>
  <text x="320.0" y="192.0" text-anchor="middle" font-size="10" fill="#451a03" font-family="system-ui,sans-serif">Schedule</text>
  <rect x="488.3" y="175.0" width="90" height="26" rx="5" fill="#ffffff" stroke="#f59e0b88" stroke-width="1.2"/>
  <text x="533.3" y="192.0" text-anchor="middle" font-size="10" fill="#451a03" font-family="system-ui,sans-serif">Eliminate</text>
</svg>