<svg viewBox="0 0 400 360" xmlns="http://www.w3.org/2000/svg" style="width:100%;height:auto">
    <rect width="400" height="360" fill="#ffffff" rx="8"/>
    <path d="M 201.04996062544296 110.00787485234486 L 202.09992125088593 40.01574970468971 A 140 140 0 0 1 339.9842502953103 177.90007874911407 L 269.99212514765514 178.95003937455704 A 70 70 0 0 0 201.04996062544296 110.00787485234486 Z" fill="#1f2937" /><text x="274.2462120245875" y="109.75378797541252" text-anchor="middle" font-size="10" fill="#111827" font-family="system-ui,sans-serif" font-weight="600">Ideate</text><path d="M 269.99212514765514 181.04996062544296 L 339.9842502953103 182.09992125088593 A 140 140 0 0 1 202.09992125088593 319.9842502953103 L 201.04996062544296 249.99212514765514 A 70 70 0 0 0 269.99212514765514 181.04996062544296 Z" fill="#273140" /><text x="274.2462120245875" y="258.24621202458746" text-anchor="middle" font-size="10" fill="#111827" font-family="system-ui,sans-serif" font-weight="600">Prototype</text><path d="M 198.95003937455704 249.99212514765514 L 197.9000787491141 319.9842502953103 A 140 140 0 0 1 60.01574970468971 182.09992125088596 L 130.00787485234486 181.049960625443 A 70 70 0 0 0 198.95003937455704 249.99212514765514 Z" fill="#2f3948" /><text x="125.75378797541252" y="258.2462120245875" text-anchor="middle" font-size="10" fill="#111827" font-family="system-ui,sans-serif" font-weight="600">Test</text><path d="M 130.00787485234486 178.95003937455704 L 60.01574970468971 177.90007874911407 A 140 140 0 0 1 197.90007874911407 40.01574970468971 L 198.95003937455704 110.00787485234486 A 70 70 0 0 0 130.00787485234486 178.95003937455704 Z" fill="#374151" /><text x="125.7537879754125" y="109.75378797541252" text-anchor="middle" font-size="10" fill="#111827" font-family="system-ui,sans-serif" font-weight="600">Refine</text>
  </svg>