<svg viewBox="0 0 600 234" xmlns="http://www.w3.org/2000/svg" style="width:100%;height:auto;background:#0e0a1a;border-radius:8px">
  <text x="300" y="20" text-anchor="middle" font-size="13" fill="#ddd6fe" font-family="system-ui,sans-serif" font-weight="600">Q2 Roadmap</text>
  <line x1="138.0" y1="50" x2="138.0" y2="226" stroke="#2d1f50" stroke-width="0.5"/>
  <text x="138.0" y="44" text-anchor="middle" font-size="10" fill="#ddd6fe" font-family="system-ui,sans-serif">1</text>
  <line x1="172.3" y1="50" x2="172.3" y2="226" stroke="#2d1f50" stroke-width="0.5"/>
  <text x="172.3" y="44" text-anchor="middle" font-size="10" fill="#ddd6fe" font-family="system-ui,sans-serif">2</text>
  <line x1="206.6" y1="50" x2="206.6" y2="226" stroke="#2d1f50" stroke-width="0.5"/>
  <text x="206.6" y="44" text-anchor="middle" font-size="10" fill="#ddd6fe" font-family="system-ui,sans-serif">3</text>
  <line x1="240.9" y1="50" x2="240.9" y2="226" stroke="#2d1f50" stroke-width="0.5"/>
  <text x="240.9" y="44" text-anchor="middle" font-size="10" fill="#ddd6fe" font-family="system-ui,sans-serif">4</text>
  <line x1="275.2" y1="50" x2="275.2" y2="226" stroke="#2d1f50" stroke-width="0.5"/>
  <text x="275.2" y="44" text-anchor="middle" font-size="10" fill="#ddd6fe" font-family="system-ui,sans-serif">5</text>
  <line x1="309.5" y1="50" x2="309.5" y2="226" stroke="#2d1f50" stroke-width="0.5"/>
  <text x="309.5" y="44" text-anchor="middle" font-size="10" fill="#ddd6fe" font-family="system-ui,sans-serif">6</text>
  <line x1="343.8" y1="50" x2="343.8" y2="226" stroke="#2d1f50" stroke-width="0.5"/>
  <text x="343.8" y="44" text-anchor="middle" font-size="10" fill="#ddd6fe" font-family="system-ui,sans-serif">7</text>
  <line x1="378.2" y1="50" x2="378.2" y2="226" stroke="#2d1f50" stroke-width="0.5"/>
  <text x="378.2" y="44" text-anchor="middle" font-size="10" fill="#ddd6fe" font-family="system-ui,sans-serif">8</text>
  <line x1="412.5" y1="50" x2="412.5" y2="226" stroke="#2d1f50" stroke-width="0.5"/>
  <text x="412.5" y="44" text-anchor="middle" font-size="10" fill="#ddd6fe" font-family="system-ui,sans-serif">9</text>
  <line x1="446.8" y1="50" x2="446.8" y2="226" stroke="#2d1f50" stroke-width="0.5"/>
  <text x="446.8" y="44" text-anchor="middle" font-size="10" fill="#ddd6fe" font-family="system-ui,sans-serif">10</text>
  <line x1="481.1" y1="50" x2="481.1" y2="226" stroke="#2d1f50" stroke-width="0.5"/>
  <text x="481.1" y="44" text-anchor="middle" font-size="10" fill="#ddd6fe" font-family="system-ui,sans-serif">11</text>
  <line x1="515.4" y1="50" x2="515.4" y2="226" stroke="#2d1f50" stroke-width="0.5"/>
  <text x="515.4" y="44" text-anchor="middle" font-size="10" fill="#ddd6fe" font-family="system-ui,sans-serif">12</text>
  <line x1="549.7" y1="50" x2="549.7" y2="226" stroke="#2d1f50" stroke-width="0.5"/>
  <text x="549.7" y="44" text-anchor="middle" font-size="10" fill="#ddd6fe" font-family="system-ui,sans-serif">13</text>
  <line x1="584.0" y1="50" x2="584.0" y2="226" stroke="#2d1f50" stroke-width="0.5"/>
  <text x="584.0" y="44" text-anchor="middle" font-size="10" fill="#ddd6fe" font-family="system-ui,sans-serif">14</text>
  <rect x="0" y="52.0" width="600" height="34" fill="#13101e" opacity="0.5"/>
  <text x="130.0" y="73.0" text-anchor="end" font-size="11" fill="#e2e8f0" font-family="system-ui,sans-serif">Auth system</text>
  <rect x="138.0" y="60.0" width="102.9" height="18" rx="4" fill="#c4b5fd88" stroke="#c4b5fd" stroke-width="1"/>
  <text x="130.0" y="107.0" text-anchor="end" font-size="11" fill="#e2e8f0" font-family="system-ui,sans-serif">API v2</text>
  <rect x="172.3" y="94.0" width="171.5" height="18" rx="4" fill="#c4b5fd88" stroke="#c4b5fd" stroke-width="1"/>
  <rect x="0" y="120.0" width="600" height="34" fill="#13101e" opacity="0.5"/>
  <text x="130.0" y="141.0" text-anchor="end" font-size="11" fill="#e2e8f0" font-family="system-ui,sans-serif">Dashboard</text>
  <rect x="240.9" y="128.0" width="171.5" height="18" rx="4" fill="#c4b5fd88" stroke="#c4b5fd" stroke-width="1"/>
  <text x="130.0" y="175.0" text-anchor="end" font-size="11" fill="#e2e8f0" font-family="system-ui,sans-serif">Mobile app</text>
  <rect x="309.5" y="162.0" width="240.2" height="18" rx="4" fill="#c4b5fd88" stroke="#c4b5fd" stroke-width="1"/>
  <rect x="0" y="188.0" width="600" height="34" fill="#13101e" opacity="0.5"/>
  <text x="130.0" y="209.0" text-anchor="end" font-size="11" fill="#e2e8f0" font-family="system-ui,sans-serif">Launch</text>
  <rect x="515.4" y="196.0" width="68.6" height="18" rx="4" fill="#c4b5fd88" stroke="#c4b5fd" stroke-width="1"/>
</svg>