<svg viewBox="0 0 550 228" xmlns="http://www.w3.org/2000/svg" style="width:100%;height:auto;background:#14100a;border-radius:8px">
  
  <path d="M120.0,118.0 H135.0 V58.0 H150.0" fill="none" stroke="#3a2800" stroke-width="1.5"/>
  <path d="M260.0,58.0 H275.0 V38.0 H290.0" fill="none" stroke="#3a2800" stroke-width="1.5"/>
  <path d="M260.0,58.0 H275.0 V78.0 H290.0" fill="none" stroke="#3a2800" stroke-width="1.5"/>
  <path d="M120.0,118.0 H135.0 V138.0 H150.0" fill="none" stroke="#3a2800" stroke-width="1.5"/>
  <path d="M260.0,138.0 H275.0 V118.0 H290.0" fill="none" stroke="#3a2800" stroke-width="1.5"/>
  <path d="M260.0,138.0 H275.0 V158.0 H290.0" fill="none" stroke="#3a2800" stroke-width="1.5"/>
  <path d="M120.0,118.0 H135.0 V198.0 H150.0" fill="none" stroke="#3a2800" stroke-width="1.5"/>
  <rect x="10.0" y="104.0" width="110" height="28" rx="5" fill="#1a1408" stroke="#fbbf2488" stroke-width="1.2"/>
  <text x="65.0" y="122.0" text-anchor="middle" font-size="10.5" fill="#e2e8f0" font-family="system-ui,sans-serif">CEO</text>
  <rect x="150.0" y="44.0" width="110" height="28" rx="5" fill="#1a1408" stroke="#fbbf2488" stroke-width="1.2"/>
  <text x="205.0" y="62.0" text-anchor="middle" font-size="10.5" fill="#e2e8f0" font-family="system-ui,sans-serif">Engineering</text>
  <rect x="290.0" y="24.0" width="110" height="28" rx="5" fill="#1a1408" stroke="#fbbf2488" stroke-width="1.2"/>
  <text x="345.0" y="42.0" text-anchor="middle" font-size="10.5" fill="#e2e8f0" font-family="system-ui,sans-serif">Frontend</text>
  <rect x="290.0" y="64.0" width="110" height="28" rx="5" fill="#1a1408" stroke="#fbbf2488" stroke-width="1.2"/>
  <text x="345.0" y="82.0" text-anchor="middle" font-size="10.5" fill="#e2e8f0" font-family="system-ui,sans-serif">Backend</text>
  <rect x="150.0" y="124.0" width="110" height="28" rx="5" fill="#1a1408" stroke="#fbbf2488" stroke-width="1.2"/>
  <text x="205.0" y="142.0" text-anchor="middle" font-size="10.5" fill="#e2e8f0" font-family="system-ui,sans-serif">Product</text>
  <rect x="290.0" y="104.0" width="110" height="28" rx="5" fill="#1a1408" stroke="#fbbf2488" stroke-width="1.2"/>
  <text x="345.0" y="122.0" text-anchor="middle" font-size="10.5" fill="#e2e8f0" font-family="system-ui,sans-serif">Design</text>
  <rect x="290.0" y="144.0" width="110" height="28" rx="5" fill="#1a1408" stroke="#fbbf2488" stroke-width="1.2"/>
  <text x="345.0" y="162.0" text-anchor="middle" font-size="10.5" fill="#e2e8f0" font-family="system-ui,sans-serif">Research</text>
  <rect x="150.0" y="184.0" width="110" height="28" rx="5" fill="#1a1408" stroke="#fbbf2488" stroke-width="1.2"/>
  <text x="205.0" y="202.0" text-anchor="middle" font-size="10.5" fill="#e2e8f0" font-family="system-ui,sans-serif">Operations</text>
</svg>