<svg viewBox="0 0 452 186" xmlns="http://www.w3.org/2000/svg" style="width:100%;height:auto;background:#080f10;border-radius:8px">
  <text x="226" y="20" text-anchor="middle" font-size="13" fill="#6ee7b7" font-family="system-ui,sans-serif" font-weight="600">Response Time by Hour &amp; Day</text>
  <rect x="0" y="30" width="100" height="28" fill="#0a1a14" stroke="#0e3020" stroke-width="0.5"/>
  <rect x="100" y="30" width="88" height="28" fill="#0a1a14" stroke="#0e3020" stroke-width="0.5"/>
  <text x="144.0" y="49.0" text-anchor="middle" font-size="10" fill="#6ee7b7" font-family="system-ui,sans-serif" font-weight="600">45ms</text>
  <rect x="188" y="30" width="88" height="28" fill="#0a1a14" stroke="#0e3020" stroke-width="0.5"/>
  <text x="232.0" y="49.0" text-anchor="middle" font-size="10" fill="#6ee7b7" font-family="system-ui,sans-serif" font-weight="600">82ms</text>
  <rect x="276" y="30" width="88" height="28" fill="#0a1a14" stroke="#0e3020" stroke-width="0.5"/>
  <text x="320.0" y="49.0" text-anchor="middle" font-size="10" fill="#6ee7b7" font-family="system-ui,sans-serif" font-weight="600">120ms</text>
  <rect x="364" y="30" width="88" height="28" fill="#0a1a14" stroke="#0e3020" stroke-width="0.5"/>
  <text x="408.0" y="49.0" text-anchor="middle" font-size="10" fill="#6ee7b7" font-family="system-ui,sans-serif" font-weight="600">95ms</text>
  <rect x="0" y="58" width="100" height="40" fill="#0a1a14" stroke="#0e3020" stroke-width="0.5"/>
  <text x="8" y="83.0" font-size="10" fill="#6ee7b7" font-family="system-ui,sans-serif">Mon</text>
  <rect x="100" y="58" width="88" height="40" fill="#10b98156" stroke="#0e302055" stroke-width="0.5"/>
  <text x="144.0" y="83.0" text-anchor="middle" font-size="10" fill="#e2e8f0" font-family="system-ui,sans-serif">45ms</text>
  <rect x="188" y="58" width="88" height="40" fill="#10b9818d" stroke="#0e302055" stroke-width="0.5"/>
  <text x="232.0" y="83.0" text-anchor="middle" font-size="10" fill="#080f10" font-family="system-ui,sans-serif">82ms</text>
  <rect x="276" y="58" width="88" height="40" fill="#10b981c6" stroke="#0e302055" stroke-width="0.5"/>
  <text x="320.0" y="83.0" text-anchor="middle" font-size="10" fill="#080f10" font-family="system-ui,sans-serif">120ms</text>
  <rect x="364" y="58" width="88" height="40" fill="#10b981a1" stroke="#0e302055" stroke-width="0.5"/>
  <text x="408.0" y="83.0" text-anchor="middle" font-size="10" fill="#080f10" font-family="system-ui,sans-serif">95ms</text>
  <rect x="0" y="98" width="100" height="40" fill="#0a1a14" stroke="#0e3020" stroke-width="0.5"/>
  <text x="8" y="123.0" font-size="10" fill="#6ee7b7" font-family="system-ui,sans-serif">Wed</text>
  <rect x="100" y="98" width="88" height="40" fill="#10b9814b" stroke="#0e302055" stroke-width="0.5"/>
  <text x="144.0" y="123.0" text-anchor="middle" font-size="10" fill="#e2e8f0" font-family="system-ui,sans-serif">38ms</text>
  <rect x="188" y="98" width="88" height="40" fill="#10b98186" stroke="#0e302055" stroke-width="0.5"/>
  <text x="232.0" y="123.0" text-anchor="middle" font-size="10" fill="#e2e8f0" font-family="system-ui,sans-serif">77ms</text>
  <rect x="276" y="98" width="88" height="40" fill="#10b981e4" stroke="#0e302055" stroke-width="0.5"/>
  <text x="320.0" y="123.0" text-anchor="middle" font-size="10" fill="#080f10" font-family="system-ui,sans-serif">140ms</text>
  <rect x="364" y="98" width="88" height="40" fill="#10b98196" stroke="#0e302055" stroke-width="0.5"/>
  <text x="408.0" y="123.0" text-anchor="middle" font-size="10" fill="#080f10" font-family="system-ui,sans-serif">88ms</text>
  <rect x="0" y="138" width="100" height="40" fill="#0a1a14" stroke="#0e3020" stroke-width="0.5"/>
  <text x="8" y="163.0" font-size="10" fill="#6ee7b7" font-family="system-ui,sans-serif">Fri</text>
  <rect x="100" y="138" width="88" height="40" fill="#10b98160" stroke="#0e302055" stroke-width="0.5"/>
  <text x="144.0" y="163.0" text-anchor="middle" font-size="10" fill="#e2e8f0" font-family="system-ui,sans-serif">52ms</text>
  <rect x="188" y="138" width="88" height="40" fill="#10b9819b" stroke="#0e302055" stroke-width="0.5"/>
  <text x="232.0" y="163.0" text-anchor="middle" font-size="10" fill="#080f10" font-family="system-ui,sans-serif">91ms</text>
  <rect x="276" y="138" width="88" height="40" fill="#10b981b4" stroke="#0e302055" stroke-width="0.5"/>
  <text x="320.0" y="163.0" text-anchor="middle" font-size="10" fill="#080f10" font-family="system-ui,sans-serif">108ms</text>
  <rect x="364" y="138" width="88" height="40" fill="#10b9817e" stroke="#0e302055" stroke-width="0.5"/>
  <text x="408.0" y="163.0" text-anchor="middle" font-size="10" fill="#e2e8f0" font-family="system-ui,sans-serif">72ms</text>
</svg>