<svg viewBox="0 0 500 186.5" xmlns="http://www.w3.org/2000/svg" style="width:100%;height:auto">
    <rect width="500" height="186.5" fill="#080f10" rx="8"/>
    <polygon points="154.4,83.0 111.1,108.0 67.8,83.0 67.8,33.0 111.1,8.0 154.4,33.0" fill="#10b98133" stroke="#10b981" stroke-width="1.5"/>
    <text x="111.1" y="52.0" text-anchor="middle" font-size="11" fill="#e2e8f0" font-family="system-ui,sans-serif" font-weight="700">Speed</text>
    <polygon points="247.0,83.0 203.7,108.0 160.4,83.0 160.4,33.0 203.7,8.0 247.0,33.0" fill="#0db07b33" stroke="#0db07b" stroke-width="1.5"/>
    <text x="203.7" y="52.0" text-anchor="middle" font-size="11" fill="#e2e8f0" font-family="system-ui,sans-serif" font-weight="700">Scale</text>
    <polygon points="339.6,83.0 296.3,108.0 253.0,83.0 253.0,33.0 296.3,8.0 339.6,33.0" fill="#0ba87533" stroke="#0ba875" stroke-width="1.5"/>
    <text x="296.3" y="52.0" text-anchor="middle" font-size="11" fill="#e2e8f0" font-family="system-ui,sans-serif" font-weight="700">Trust</text>
    <polygon points="432.2,83.0 388.9,108.0 345.6,83.0 345.6,33.0 388.9,8.0 432.2,33.0" fill="#089f6f33" stroke="#089f6f" stroke-width="1.5"/>
    <text x="388.9" y="52.0" text-anchor="middle" font-size="11" fill="#e2e8f0" font-family="system-ui,sans-serif" font-weight="700">Quality</text>
    <polygon points="200.7,162.0 157.4,187.0 114.1,162.0 114.1,112.0 157.4,87.0 200.7,112.0" fill="#05966933" stroke="#059669" stroke-width="1.5"/>
    <text x="157.4" y="131.0" text-anchor="middle" font-size="11" fill="#e2e8f0" font-family="system-ui,sans-serif" font-weight="700">Impact</text>
  </svg>