<svg viewBox="0 0 500 167" xmlns="http://www.w3.org/2000/svg" style="width:100%;height:auto">
    <rect width="500" height="167" fill="#ffffff" rx="8"/>
    <polygon points="164.8,74.0 126.7,96.0 88.6,74.0 88.6,30.0 126.7,8.0 164.8,30.0" fill="#37415133" stroke="#374151" stroke-width="1.5"/>
    <text x="126.7" y="46.0" text-anchor="middle" font-size="11" fill="#111827" font-family="system-ui,sans-serif" font-weight="700">Speed</text>
    <polygon points="247.0,74.0 208.9,96.0 170.8,74.0 170.8,30.0 208.9,8.0 247.0,30.0" fill="#313b4b33" stroke="#313b4b" stroke-width="1.5"/>
    <text x="208.9" y="46.0" text-anchor="middle" font-size="11" fill="#111827" font-family="system-ui,sans-serif" font-weight="700">Scale</text>
    <polygon points="329.2,74.0 291.1,96.0 253.0,74.0 253.0,30.0 291.1,8.0 329.2,30.0" fill="#2b354433" stroke="#2b3544" stroke-width="1.5"/>
    <text x="291.1" y="46.0" text-anchor="middle" font-size="11" fill="#111827" font-family="system-ui,sans-serif" font-weight="700">Trust</text>
    <polygon points="411.4,74.0 373.3,96.0 335.2,74.0 335.2,30.0 373.3,8.0 411.4,30.0" fill="#252f3e33" stroke="#252f3e" stroke-width="1.5"/>
    <text x="373.3" y="46.0" text-anchor="middle" font-size="11" fill="#111827" font-family="system-ui,sans-serif" font-weight="700">Quality</text>
    <polygon points="205.9,144.0 167.8,166.0 129.7,144.0 129.7,100.0 167.8,78.0 205.9,100.0" fill="#1f293733" stroke="#1f2937" stroke-width="1.5"/>
    <text x="167.8" y="116.0" text-anchor="middle" font-size="11" fill="#111827" font-family="system-ui,sans-serif" font-weight="700">Impact</text>
  </svg>