<svg viewBox="0 0 520 166.4" xmlns="http://www.w3.org/2000/svg" style="width:100%;height:auto">
    <rect width="520" height="166.4" fill="#faf5ff" rx="8"/>
    <defs>
    <marker id="lp-fwd" markerWidth="8" markerHeight="8" refX="6" refY="4" orient="auto">
      <path d="M0,0 L7,4 L0,8 Z" fill="#7c3aed"/>
    </marker>
    <marker id="lp-ret" markerWidth="8" markerHeight="8" refX="6" refY="4" orient="auto">
      <path d="M0,0 L7,4 L0,8 Z" fill="#8b5cf6bb"/>
    </marker>
  </defs>
    <line x1="72.0" y1="48" x2="165.3" y2="48" stroke="#7c3aed" stroke-width="2" marker-end="url(#lp-fwd)"/>
    <line x1="213.3" y1="48" x2="306.7" y2="48" stroke="#7734e6" stroke-width="2" marker-end="url(#lp-fwd)"/>
    <line x1="354.7" y1="48" x2="448.0" y2="48" stroke="#722ee0" stroke-width="2" marker-end="url(#lp-fwd)"/>
    <path d="M472.0,72 C472.0,138.4 48.0,138.4 48.0,72" fill="none" stroke="#8b5cf6" stroke-width="1.8" stroke-dasharray="5,4" opacity="0.7" marker-end="url(#lp-ret)"/>
    <text x="260.0" y="151.4" text-anchor="middle" font-size="9" fill="#6d28d9" font-family="system-ui,sans-serif" font-style="italic" opacity="0.85">&#x21BA; loop</text>
    <circle cx="48.0" cy="48" r="22" fill="#7c3aed" stroke="#faf5ff" stroke-width="2.5"/>
    <text x="48.0" y="51.8" text-anchor="middle" font-size="10" font-weight="700" font-family="system-ui,sans-serif" fill="#faf5ff">Collect</text>
    <circle cx="66.0" cy="30.0" r="7" fill="#faf5ff" stroke="#7c3aed" stroke-width="1.5"/>
    <text x="66.0" y="33.5" text-anchor="middle" font-size="8" font-weight="700" font-family="system-ui,sans-serif" fill="#7c3aed">1</text>
    <circle cx="189.3" cy="48" r="22" fill="#7734e6" stroke="#faf5ff" stroke-width="2.5"/>
    <text x="189.3" y="51.8" text-anchor="middle" font-size="10" font-weight="700" font-family="system-ui,sans-serif" fill="#faf5ff">Analyze</text>
    <circle cx="207.3" cy="30.0" r="7" fill="#faf5ff" stroke="#7734e6" stroke-width="1.5"/>
    <text x="207.3" y="33.5" text-anchor="middle" font-size="8" font-weight="700" font-family="system-ui,sans-serif" fill="#7734e6">2</text>
    <circle cx="330.7" cy="48" r="22" fill="#722ee0" stroke="#faf5ff" stroke-width="2.5"/>
    <text x="330.7" y="51.8" text-anchor="middle" font-size="10" font-weight="700" font-family="system-ui,sans-serif" fill="#faf5ff">Act</text>
    <circle cx="348.7" cy="30.0" r="7" fill="#faf5ff" stroke="#722ee0" stroke-width="1.5"/>
    <text x="348.7" y="33.5" text-anchor="middle" font-size="8" font-weight="700" font-family="system-ui,sans-serif" fill="#722ee0">3</text>
    <circle cx="472.0" cy="48" r="22" fill="#6d28d9" stroke="#faf5ff" stroke-width="2.5"/>
    <text x="472.0" y="51.8" text-anchor="middle" font-size="10" font-weight="700" font-family="system-ui,sans-serif" fill="#faf5ff">Monitor</text>
    <circle cx="490.0" cy="30.0" r="7" fill="#faf5ff" stroke="#6d28d9" stroke-width="1.5"/>
    <text x="490.0" y="33.5" text-anchor="middle" font-size="8" font-weight="700" font-family="system-ui,sans-serif" fill="#6d28d9">4</text>
  </svg>