<svg viewBox="0 0 640 520" xmlns="http://www.w3.org/2000/svg" style="width:100%;height:auto;background:#14100a;border-radius:8px">
  <line x1="320.0" y1="260.0" x2="320.0" y2="105.0" stroke="#fbbf2455" stroke-width="2"/>
  <line x1="320.0" y1="105.0" x2="300.7" y2="29.4" stroke="#78350f" stroke-width="1" opacity="0.8"/>
  <line x1="320.0" y1="105.0" x2="339.3" y2="29.4" stroke="#78350f" stroke-width="1" opacity="0.8"/>
  <line x1="320.0" y1="260.0" x2="475.0" y2="260.0" stroke="#fbbf2455" stroke-width="2"/>
  <line x1="475.0" y1="260.0" x2="550.6" y2="240.7" stroke="#78350f" stroke-width="1" opacity="0.8"/>
  <line x1="475.0" y1="260.0" x2="550.6" y2="279.3" stroke="#78350f" stroke-width="1" opacity="0.8"/>
  <line x1="320.0" y1="260.0" x2="320.0" y2="415.0" stroke="#fbbf2455" stroke-width="2"/>
  <line x1="320.0" y1="415.0" x2="320.0" y2="493.0" stroke="#78350f" stroke-width="1" opacity="0.8"/>
  <line x1="320.0" y1="260.0" x2="165.0" y2="260.0" stroke="#fbbf2455" stroke-width="2"/>
  <line x1="165.0" y1="260.0" x2="87.0" y2="260.0" stroke="#78350f" stroke-width="1" opacity="0.8"/>
  <ellipse cx="320" cy="260" rx="64" ry="24" fill="#1a1408" stroke="#fbbf24" stroke-width="1.5"/>
  <ellipse cx="320.0" cy="105.0" rx="50" ry="20" fill="#1a1408" stroke="#fbbf2488" stroke-width="1"/>
  <circle cx="300.7" cy="29.4" r="20" fill="#1a1408" stroke="#78350f55" stroke-width="1"/>
  <circle cx="339.3" cy="29.4" r="20" fill="#1a1408" stroke="#78350f55" stroke-width="1"/>
  <ellipse cx="475.0" cy="260.0" rx="50" ry="20" fill="#1a1408" stroke="#fbbf2488" stroke-width="1"/>
  <circle cx="550.6" cy="240.7" r="20" fill="#1a1408" stroke="#78350f55" stroke-width="1"/>
  <circle cx="550.6" cy="279.3" r="20" fill="#1a1408" stroke="#78350f55" stroke-width="1"/>
  <ellipse cx="320.0" cy="415.0" rx="50" ry="20" fill="#1a1408" stroke="#fbbf2488" stroke-width="1"/>
  <circle cx="320.0" cy="493.0" r="20" fill="#1a1408" stroke="#78350f55" stroke-width="1"/>
  <ellipse cx="165.0" cy="260.0" rx="50" ry="20" fill="#1a1408" stroke="#fbbf2488" stroke-width="1"/>
  <circle cx="87.0" cy="260.0" r="20" fill="#1a1408" stroke="#78350f55" stroke-width="1"/>
  <text x="320" y="264" text-anchor="middle" font-size="12" fill="#e2e8f0" font-family="system-ui,sans-serif" font-weight="600">Product Strategy</text>
  <text x="320.0" y="109.0" text-anchor="middle" font-size="10" fill="#e2e8f0" font-family="system-ui,sans-serif">Market</text>
  <text x="300.7" y="32.4" text-anchor="middle" font-size="9" fill="#fde68a" font-family="system-ui,sans-serif">B2B</text>
  <text x="339.3" y="32.4" text-anchor="middle" font-size="9" fill="#fde68a" font-family="system-ui,sans-serif">Enterprise</text>
  <text x="475.0" y="264.0" text-anchor="middle" font-size="10" fill="#e2e8f0" font-family="system-ui,sans-serif">Technology</text>
  <text x="550.6" y="243.7" text-anchor="middle" font-size="9" fill="#fde68a" font-family="system-ui,sans-serif">Mobile</text>
  <text x="550.6" y="282.3" text-anchor="middle" font-size="9" fill="#fde68a" font-family="system-ui,sans-serif">API</text>
  <text x="320.0" y="419.0" text-anchor="middle" font-size="10" fill="#e2e8f0" font-family="system-ui,sans-serif">Growth</text>
  <text x="320.0" y="496.0" text-anchor="middle" font-size="9" fill="#fde68a" font-family="system-ui,sans-serif">SEO</text>
  <text x="165.0" y="264.0" text-anchor="middle" font-size="10" fill="#e2e8f0" font-family="system-ui,sans-serif">Revenue</text>
  <text x="87.0" y="263.0" text-anchor="middle" font-size="9" fill="#fde68a" font-family="system-ui,sans-serif"><title>Subscriptions</title>Subscripti…</text>
</svg>