<svg viewBox="0 0 580 420" xmlns="http://www.w3.org/2000/svg" style="width:100%;height:auto;background:#f0f9ff;border-radius:8px">
  <text x="290" y="20" text-anchor="middle" font-size="13" fill="#0369a1" font-family="system-ui,sans-serif" font-weight="600">Service Topology</text>
  <defs><marker id="net-arr" markerWidth="6" markerHeight="6" refX="5" refY="3" orient="auto"><path d="M0,0 L6,3 L0,6 Z" fill="#e0f2fe99"/></marker></defs>
  <line x1="338.7" y1="64.4" x2="365.5" y2="111.1" stroke="#e0f2fe88" stroke-width="1.5" marker-end="url(#net-arr)"/>
  <line x1="302.0" y1="73.6" x2="349.1" y2="355.9" stroke="#e0f2fe88" stroke-width="1.5" marker-end="url(#net-arr)"/>
  <line x1="433.4" y1="136.8" x2="440.0" y2="241.9" stroke="#e0f2fe88" stroke-width="1.5" marker-end="url(#net-arr)"/>
  <line x1="387.7" y1="133.5" x2="255.8" y2="359.9" stroke="#e0f2fe88" stroke-width="1.5" marker-end="url(#net-arr)"/>
  <line x1="399.8" y1="262.4" x2="188.2" y2="262.4" stroke="#e0f2fe88" stroke-width="1.5" marker-end="url(#net-arr)"/>
  <line x1="405.1" y1="255.0" x2="214.5" y2="129.4" stroke="#e0f2fe88" stroke-width="1.5" marker-end="url(#net-arr)"/>
  <rect x="238.0" y="42.0" width="104" height="30" rx="6" fill="#ffffff" stroke="#0ea5e988" stroke-width="1.2"/>
  <text x="290.0" y="61.0" text-anchor="middle" font-size="11" fill="#082f49" font-family="system-ui,sans-serif">Browser</text>
  <rect x="369.3" y="105.3" width="104" height="30" rx="6" fill="#ffffff" stroke="#0ea5e988" stroke-width="1.2"/>
  <text x="421.3" y="124.3" text-anchor="middle" font-size="11" fill="#082f49" font-family="system-ui,sans-serif">API Server</text>
  <rect x="401.8" y="247.4" width="104" height="30" rx="6" fill="#ffffff" stroke="#0ea5e988" stroke-width="1.2"/>
  <text x="453.8" y="266.4" text-anchor="middle" font-size="11" fill="#082f49" font-family="system-ui,sans-serif">Worker</text>
  <rect x="310.9" y="361.4" width="104" height="30" rx="6" fill="#ffffffcc" stroke="#e0f2fe66" stroke-width="1.2"/>
  <text x="362.9" y="380.4" text-anchor="middle" font-size="11" fill="#082f49" font-family="system-ui,sans-serif">CDN</text>
  <rect x="165.1" y="361.4" width="104" height="30" rx="6" fill="#ffffffcc" stroke="#e0f2fe66" stroke-width="1.2"/>
  <text x="217.1" y="380.4" text-anchor="middle" font-size="11" fill="#082f49" font-family="system-ui,sans-serif">SQLite</text>
  <rect x="74.2" y="247.4" width="104" height="30" rx="6" fill="#ffffffcc" stroke="#e0f2fe66" stroke-width="1.2"/>
  <text x="126.2" y="266.4" text-anchor="middle" font-size="11" fill="#082f49" font-family="system-ui,sans-serif">Claude CLI</text>
  <rect x="106.7" y="105.3" width="104" height="30" rx="6" fill="#ffffffcc" stroke="#e0f2fe66" stroke-width="1.2"/>
  <text x="158.7" y="124.3" text-anchor="middle" font-size="11" fill="#082f49" font-family="system-ui,sans-serif">MCP Server</text>
</svg>