<svg viewBox="0 0 460 232" xmlns="http://www.w3.org/2000/svg" style="width:100%;height:auto">
    <rect width="460" height="232" fill="#080f18" rx="8"/>
    <rect x="16" y="25" width="22" height="22" rx="4" fill="#0891b2" /><text x="27" y="40" text-anchor="middle" font-size="11" fill="#e2e8f0" font-family="system-ui,sans-serif" font-weight="700">1</text><text x="46" y="40" font-size="12" fill="#e2e8f0" font-family="system-ui,sans-serif" font-weight="600">Define the problem</text><line x1="16" y1="56" x2="444" y2="56" stroke="#0e3040" stroke-width="0.5" /><rect x="16" y="65" width="22" height="22" rx="4" fill="#089abb" /><text x="27" y="80" text-anchor="middle" font-size="11" fill="#e2e8f0" font-family="system-ui,sans-serif" font-weight="700">2</text><text x="46" y="80" font-size="12" fill="#e2e8f0" font-family="system-ui,sans-serif" font-weight="600">Research solutions</text><line x1="16" y1="96" x2="444" y2="96" stroke="#0e3040" stroke-width="0.5" /><rect x="16" y="105" width="22" height="22" rx="4" fill="#07a4c3" /><text x="27" y="120" text-anchor="middle" font-size="11" fill="#e2e8f0" font-family="system-ui,sans-serif" font-weight="700">3</text><text x="46" y="120" font-size="12" fill="#e2e8f0" font-family="system-ui,sans-serif" font-weight="600">Prototype quickly</text><line x1="16" y1="136" x2="444" y2="136" stroke="#0e3040" stroke-width="0.5" /><rect x="16" y="145" width="22" height="22" rx="4" fill="#07adcc" /><text x="27" y="160" text-anchor="middle" font-size="11" fill="#e2e8f0" font-family="system-ui,sans-serif" font-weight="700">4</text><text x="46" y="160" font-size="12" fill="#e2e8f0" font-family="system-ui,sans-serif" font-weight="600">Validate with users</text><line x1="16" y1="176" x2="444" y2="176" stroke="#0e3040" stroke-width="0.5" /><rect x="16" y="185" width="22" height="22" rx="4" fill="#06b6d4" /><text x="27" y="200" text-anchor="middle" font-size="11" fill="#e2e8f0" font-family="system-ui,sans-serif" font-weight="700">5</text><text x="46" y="200" font-size="12" fill="#e2e8f0" font-family="system-ui,sans-serif" font-weight="600">Ship and iterate</text>
  </svg>