<svg viewBox="0 0 460 192" xmlns="http://www.w3.org/2000/svg" style="width:100%;height:auto">
    <rect width="460" height="192" fill="#f0fdff" rx="8"/>
    <rect x="16" y="23" width="22" height="22" rx="4" fill="#0e7490" /><text x="27" y="38" text-anchor="middle" font-size="11" fill="#083344" font-family="system-ui,sans-serif" font-weight="700">1</text><text x="46" y="38" font-size="12" fill="#083344" font-family="system-ui,sans-serif" font-weight="600">Define the problem</text><line x1="16" y1="48" x2="444" y2="48" stroke="#a5f3fc" stroke-width="0.5" /><rect x="16" y="55" width="22" height="22" rx="4" fill="#0d7b99" /><text x="27" y="70" text-anchor="middle" font-size="11" fill="#083344" font-family="system-ui,sans-serif" font-weight="700">2</text><text x="46" y="70" font-size="12" fill="#083344" font-family="system-ui,sans-serif" font-weight="600">Research solutions</text><line x1="16" y1="80" x2="444" y2="80" stroke="#a5f3fc" stroke-width="0.5" /><rect x="16" y="87" width="22" height="22" rx="4" fill="#0b83a1" /><text x="27" y="102" text-anchor="middle" font-size="11" fill="#083344" font-family="system-ui,sans-serif" font-weight="700">3</text><text x="46" y="102" font-size="12" fill="#083344" font-family="system-ui,sans-serif" font-weight="600">Prototype quickly</text><line x1="16" y1="112" x2="444" y2="112" stroke="#a5f3fc" stroke-width="0.5" /><rect x="16" y="119" width="22" height="22" rx="4" fill="#0a8aaa" /><text x="27" y="134" text-anchor="middle" font-size="11" fill="#083344" font-family="system-ui,sans-serif" font-weight="700">4</text><text x="46" y="134" font-size="12" fill="#083344" font-family="system-ui,sans-serif" font-weight="600">Validate with users</text><line x1="16" y1="144" x2="444" y2="144" stroke="#a5f3fc" stroke-width="0.5" /><rect x="16" y="151" width="22" height="22" rx="4" fill="#0891b2" /><text x="27" y="166" text-anchor="middle" font-size="11" fill="#083344" font-family="system-ui,sans-serif" font-weight="700">5</text><text x="46" y="166" font-size="12" fill="#083344" font-family="system-ui,sans-serif" font-weight="600">Ship and iterate</text>
  </svg>