<svg viewBox="0 0 560 92" xmlns="http://www.w3.org/2000/svg" style="width:100%;height:auto">
    <rect width="560" height="92" fill="#ffffff" rx="8"/>
    <rect x="0.0" y="8.0" width="182.7" height="76" rx="6" fill="#f9fafb" stroke="#37415155" stroke-width="1"/>
    <rect x="0.0" y="8.0" width="182.7" height="24" rx="6" fill="#374151"/>
    <rect x="0.0" y="26.0" width="182.7" height="6" fill="#374151"/>
    <text x="91.3" y="24.0" text-anchor="middle" font-size="10" fill="#fff" font-family="system-ui,sans-serif" font-weight="700">Discovery</text>
    <rect x="4.0" y="38.0" width="174.7" height="18" rx="3" fill="#37415122"/>
    <text x="91.3" y="51.0" text-anchor="middle" font-size="9" fill="#6b7280" font-family="system-ui,sans-serif">User Research</text>
    <rect x="4.0" y="58.0" width="174.7" height="18" rx="3" fill="#37415122"/>
    <text x="91.3" y="71.0" text-anchor="middle" font-size="9" fill="#6b7280" font-family="system-ui,sans-serif">Stakeholders</text>
    <rect x="188.7" y="8.0" width="182.7" height="76" rx="6" fill="#f9fafb" stroke="#2b354455" stroke-width="1"/>
    <rect x="188.7" y="8.0" width="182.7" height="24" rx="6" fill="#2b3544"/>
    <rect x="188.7" y="26.0" width="182.7" height="6" fill="#2b3544"/>
    <text x="280.0" y="24.0" text-anchor="middle" font-size="10" fill="#fff" font-family="system-ui,sans-serif" font-weight="700">Design</text>
    <rect x="192.7" y="38.0" width="174.7" height="18" rx="3" fill="#2b354422"/>
    <text x="280.0" y="51.0" text-anchor="middle" font-size="9" fill="#6b7280" font-family="system-ui,sans-serif">Wireframes</text>
    <rect x="192.7" y="58.0" width="174.7" height="18" rx="3" fill="#2b354422"/>
    <text x="280.0" y="71.0" text-anchor="middle" font-size="9" fill="#6b7280" font-family="system-ui,sans-serif">Prototype</text>
    <rect x="377.3" y="8.0" width="182.7" height="76" rx="6" fill="#f9fafb" stroke="#1f293755" stroke-width="1"/>
    <rect x="377.3" y="8.0" width="182.7" height="24" rx="6" fill="#1f2937"/>
    <rect x="377.3" y="26.0" width="182.7" height="6" fill="#1f2937"/>
    <text x="468.7" y="24.0" text-anchor="middle" font-size="10" fill="#fff" font-family="system-ui,sans-serif" font-weight="700">Build</text>
    <rect x="381.3" y="38.0" width="174.7" height="18" rx="3" fill="#1f293722"/>
    <text x="468.7" y="51.0" text-anchor="middle" font-size="9" fill="#6b7280" font-family="system-ui,sans-serif">Sprint 1</text>
    <rect x="381.3" y="58.0" width="174.7" height="18" rx="3" fill="#1f293722"/>
    <text x="468.7" y="71.0" text-anchor="middle" font-size="9" fill="#6b7280" font-family="system-ui,sans-serif">Sprint 2</text>
  </svg>