<svg viewBox="0 0 560 92" xmlns="http://www.w3.org/2000/svg" style="width:100%;height:auto">
    <rect width="560" height="92" fill="#080f10" rx="8"/>
    <rect x="0.0" y="8.0" width="182.7" height="76" rx="6" fill="#0a1a14" stroke="#10b98155" stroke-width="1"/>
    <rect x="0.0" y="8.0" width="182.7" height="24" rx="6" fill="#10b981"/>
    <rect x="0.0" y="26.0" width="182.7" height="6" fill="#10b981"/>
    <text x="91.3" y="24.0" text-anchor="middle" font-size="10" fill="#fff" font-family="system-ui,sans-serif" font-weight="700">Discovery</text>
    <rect x="4.0" y="38.0" width="174.7" height="18" rx="3" fill="#10b98122"/>
    <text x="91.3" y="51.0" text-anchor="middle" font-size="9" fill="#6ee7b7" font-family="system-ui,sans-serif">User Research</text>
    <rect x="4.0" y="58.0" width="174.7" height="18" rx="3" fill="#10b98122"/>
    <text x="91.3" y="71.0" text-anchor="middle" font-size="9" fill="#6ee7b7" font-family="system-ui,sans-serif">Stakeholders</text>
    <rect x="188.7" y="8.0" width="182.7" height="76" rx="6" fill="#0a1a14" stroke="#0ba87555" stroke-width="1"/>
    <rect x="188.7" y="8.0" width="182.7" height="24" rx="6" fill="#0ba875"/>
    <rect x="188.7" y="26.0" width="182.7" height="6" fill="#0ba875"/>
    <text x="280.0" y="24.0" text-anchor="middle" font-size="10" fill="#fff" font-family="system-ui,sans-serif" font-weight="700">Design</text>
    <rect x="192.7" y="38.0" width="174.7" height="18" rx="3" fill="#0ba87522"/>
    <text x="280.0" y="51.0" text-anchor="middle" font-size="9" fill="#6ee7b7" font-family="system-ui,sans-serif">Wireframes</text>
    <rect x="192.7" y="58.0" width="174.7" height="18" rx="3" fill="#0ba87522"/>
    <text x="280.0" y="71.0" text-anchor="middle" font-size="9" fill="#6ee7b7" font-family="system-ui,sans-serif">Prototype</text>
    <rect x="377.3" y="8.0" width="182.7" height="76" rx="6" fill="#0a1a14" stroke="#05966955" stroke-width="1"/>
    <rect x="377.3" y="8.0" width="182.7" height="24" rx="6" fill="#059669"/>
    <rect x="377.3" y="26.0" width="182.7" height="6" fill="#059669"/>
    <text x="468.7" y="24.0" text-anchor="middle" font-size="10" fill="#fff" font-family="system-ui,sans-serif" font-weight="700">Build</text>
    <rect x="381.3" y="38.0" width="174.7" height="18" rx="3" fill="#05966922"/>
    <text x="468.7" y="51.0" text-anchor="middle" font-size="9" fill="#6ee7b7" font-family="system-ui,sans-serif">Sprint 1</text>
    <rect x="381.3" y="58.0" width="174.7" height="18" rx="3" fill="#05966922"/>
    <text x="468.7" y="71.0" text-anchor="middle" font-size="9" fill="#6ee7b7" font-family="system-ui,sans-serif">Sprint 2</text>
  </svg>