<svg viewBox="0 0 700 100" xmlns="http://www.w3.org/2000/svg" style="width:100%;height:auto">
    <rect width="700" height="100" fill="#ffffff" rx="8"/>
    
    <rect x="21.5" y="20" width="117" height="60" rx="6" fill="#1f2937" /><text x="80" y="50" text-anchor="middle" font-size="12" fill="#111827" font-family="system-ui,sans-serif" font-weight="600">Discovery</text><polygon points="140.5,43 156.5,50 140.5,57" fill="#1f2937" /><rect x="156.5" y="20" width="117" height="60" rx="6" fill="#252f3e" /><text x="215" y="50" text-anchor="middle" font-size="12" fill="#111827" font-family="system-ui,sans-serif" font-weight="600">Design</text><polygon points="275.5,43 291.5,50 275.5,57" fill="#252f3e" /><rect x="291.5" y="20" width="117" height="60" rx="6" fill="#2b3544" /><text x="350" y="50" text-anchor="middle" font-size="12" fill="#111827" font-family="system-ui,sans-serif" font-weight="600">Build</text><polygon points="410.5,43 426.5,50 410.5,57" fill="#2b3544" /><rect x="426.5" y="20" width="117" height="60" rx="6" fill="#313b4b" /><text x="485" y="50" text-anchor="middle" font-size="12" fill="#111827" font-family="system-ui,sans-serif" font-weight="600">Test</text><polygon points="545.5,43 561.5,50 545.5,57" fill="#313b4b" /><rect x="561.5" y="20" width="117" height="60" rx="6" fill="#374151" /><text x="620" y="50" text-anchor="middle" font-size="12" fill="#111827" font-family="system-ui,sans-serif" font-weight="600">Deploy</text>
  </svg>