<svg viewBox="0 0 700 100" xmlns="http://www.w3.org/2000/svg" style="width:100%;height:auto">
    <rect width="700" height="100" fill="#f0fdf4" rx="8"/>
    
    <rect x="21.5" y="20" width="117" height="60" rx="6" fill="#047857" /><text x="80" y="50" text-anchor="middle" font-size="12" fill="#052e16" font-family="system-ui,sans-serif" font-weight="600">Discovery</text><polygon points="140.5,43 156.5,50 140.5,57" fill="#047857" /><rect x="156.5" y="20" width="117" height="60" rx="6" fill="#04805c" /><text x="215" y="50" text-anchor="middle" font-size="12" fill="#052e16" font-family="system-ui,sans-serif" font-weight="600">Design</text><polygon points="275.5,43 291.5,50 275.5,57" fill="#04805c" /><rect x="291.5" y="20" width="117" height="60" rx="6" fill="#058760" /><text x="350" y="50" text-anchor="middle" font-size="12" fill="#052e16" font-family="system-ui,sans-serif" font-weight="600">Build</text><polygon points="410.5,43 426.5,50 410.5,57" fill="#058760" /><rect x="426.5" y="20" width="117" height="60" rx="6" fill="#058f65" /><text x="485" y="50" text-anchor="middle" font-size="12" fill="#052e16" font-family="system-ui,sans-serif" font-weight="600">Test</text><polygon points="545.5,43 561.5,50 545.5,57" fill="#058f65" /><rect x="561.5" y="20" width="117" height="60" rx="6" fill="#059669" /><text x="620" y="50" text-anchor="middle" font-size="12" fill="#052e16" font-family="system-ui,sans-serif" font-weight="600">Deploy</text>
  </svg>