<svg viewBox="0 0 520 242" xmlns="http://www.w3.org/2000/svg" style="width:100%;height:auto;background:#080f10;border-radius:8px">
  <text x="260" y="20" text-anchor="middle" font-size="13" fill="#6ee7b7" font-family="system-ui,sans-serif" font-weight="600">Q4 KPIs</text>
  <rect x="175" y="45" width="293" height="16" rx="8" fill="#064e3b33"/>
  <rect x="175" y="45" width="254.9" height="16" rx="8" fill="#34d399"/>
  <text x="155" y="56" text-anchor="end" font-size="12" fill="#e2e8f0" font-family="system-ui,sans-serif">Revenue</text>
  <text x="476" y="56" font-size="11" fill="#6ee7b7" font-family="system-ui,sans-serif">87%</text>
  <rect x="175" y="85" width="293" height="16" rx="8" fill="#064e3b33"/>
  <rect x="175" y="85" width="269.6" height="16" rx="8" fill="#34d399"/>
  <text x="155" y="96" text-anchor="end" font-size="12" fill="#e2e8f0" font-family="system-ui,sans-serif">Customer Retention</text>
  <text x="476" y="96" font-size="11" fill="#6ee7b7" font-family="system-ui,sans-serif">92%</text>
  <rect x="175" y="125" width="293" height="16" rx="8" fill="#064e3b33"/>
  <rect x="175" y="125" width="187.5" height="16" rx="8" fill="#fbbf24"/>
  <text x="155" y="136" text-anchor="end" font-size="12" fill="#e2e8f0" font-family="system-ui,sans-serif">NPS Score</text>
  <text x="476" y="136" font-size="11" fill="#6ee7b7" font-family="system-ui,sans-serif">64%</text>
  <rect x="175" y="165" width="293" height="16" rx="8" fill="#064e3b33"/>
  <rect x="175" y="165" width="131.8" height="16" rx="8" fill="#fbbf24"/>
  <text x="155" y="176" text-anchor="end" font-size="12" fill="#e2e8f0" font-family="system-ui,sans-serif">Bug Resolution</text>
  <text x="476" y="176" font-size="11" fill="#6ee7b7" font-family="system-ui,sans-serif">45%</text>
  <rect x="175" y="205" width="293" height="16" rx="8" fill="#064e3b33"/>
  <rect x="175" y="205" width="213.9" height="16" rx="8" fill="#34d399"/>
  <text x="155" y="216" text-anchor="end" font-size="12" fill="#e2e8f0" font-family="system-ui,sans-serif">Feature Delivery</text>
  <text x="476" y="216" font-size="11" fill="#6ee7b7" font-family="system-ui,sans-serif">73%</text>
</svg>