<svg viewBox="0 0 500 180" xmlns="http://www.w3.org/2000/svg" style="width:100%;height:auto">
    <rect width="500" height="180" fill="#eff6ff" rx="8"/>
    <rect x="0" y="16" width="250" height="40" fill="#064e3b" /><text x="125" y="41" text-anchor="middle" font-size="13" fill="#6ee7b7" font-family="system-ui,sans-serif" font-weight="700">Pros</text><rect x="250" y="16" width="250" height="40" fill="#4c0519" /><text x="375" y="41" text-anchor="middle" font-size="13" fill="#fda4af" font-family="system-ui,sans-serif" font-weight="700">Cons</text><rect x="0" y="56" width="250" height="36" fill="#ffffff" /><rect x="250" y="56" width="250" height="36" fill="#ffffff" /><text x="16" y="79" font-size="11" fill="#6ee7b7" font-family="system-ui,sans-serif">✓ Fast time to market</text><text x="266" y="79" font-size="11" fill="#fda4af" font-family="system-ui,sans-serif">✗ Vendor lock-in</text><line x1="0" y1="92" x2="500" y2="92" stroke="#bfdbfe" stroke-width="0.5" /><rect x="0" y="92" width="250" height="36" fill="#eff6ff" /><rect x="250" y="92" width="250" height="36" fill="#eff6ff" /><text x="16" y="115" font-size="11" fill="#6ee7b7" font-family="system-ui,sans-serif">✓ Low upfront cost</text><text x="266" y="115" font-size="11" fill="#fda4af" font-family="system-ui,sans-serif">✗ Less customization</text><line x1="0" y1="128" x2="500" y2="128" stroke="#bfdbfe" stroke-width="0.5" /><rect x="0" y="128" width="250" height="36" fill="#ffffff" /><rect x="250" y="128" width="250" height="36" fill="#ffffff" /><text x="16" y="151" font-size="11" fill="#6ee7b7" font-family="system-ui,sans-serif">✓ Flexible scaling</text><text x="266" y="151" font-size="11" fill="#fda4af" font-family="system-ui,sans-serif">✗ Ongoing SaaS fees</text><line x1="250" y1="16" x2="250" y2="180" stroke="#eff6ff" stroke-width="2" />
  </svg>