<svg viewBox="0 0 480 410" xmlns="http://www.w3.org/2000/svg" style="width:100%;height:auto;background:#080f10;border-radius:8px">
  <text x="240" y="20" text-anchor="middle" font-size="13" fill="#6ee7b7" font-family="system-ui,sans-serif" font-weight="600">Team Skills</text>
  <polygon points="240.0,183.5 271.6,201.8 271.6,238.3 240.0,256.5 208.4,238.3 208.4,201.8" fill="none" stroke="#0e302099" stroke-width="0.8"/>
  <text x="240" y="186.5" text-anchor="middle" font-size="8" fill="#6ee7b7" font-family="system-ui,sans-serif" opacity="0.7">25%</text>
  <polygon points="240.0,147.0 303.2,183.5 303.2,256.5 240.0,293.0 176.8,256.5 176.8,183.5" fill="none" stroke="#0e302099" stroke-width="0.8"/>
  <text x="240" y="150.0" text-anchor="middle" font-size="8" fill="#6ee7b7" font-family="system-ui,sans-serif" opacity="0.7">50%</text>
  <polygon points="240.0,110.5 334.8,165.3 334.8,274.8 240.0,329.5 145.2,274.8 145.2,165.3" fill="none" stroke="#0e302099" stroke-width="0.8"/>
  <text x="240" y="113.5" text-anchor="middle" font-size="8" fill="#6ee7b7" font-family="system-ui,sans-serif" opacity="0.7">75%</text>
  <polygon points="240.0,74.0 366.4,147.0 366.4,293.0 240.0,366.0 113.6,293.0 113.6,147.0" fill="none" stroke="#0e302099" stroke-width="0.8"/>
  <text x="240" y="77.0" text-anchor="middle" font-size="8" fill="#6ee7b7" font-family="system-ui,sans-serif" opacity="0.7">100%</text>
  <line x1="240" y1="220" x2="240.0" y2="74.0" stroke="#0e302066" stroke-width="1"/>
  <line x1="240" y1="220" x2="366.4" y2="147.0" stroke="#0e302066" stroke-width="1"/>
  <line x1="240" y1="220" x2="366.4" y2="293.0" stroke="#0e302066" stroke-width="1"/>
  <line x1="240" y1="220" x2="240.0" y2="366.0" stroke="#0e302066" stroke-width="1"/>
  <line x1="240" y1="220" x2="113.6" y2="293.0" stroke="#0e302066" stroke-width="1"/>
  <line x1="240" y1="220" x2="113.6" y2="147.0" stroke="#0e302066" stroke-width="1"/>
  <polygon points="240.0,95.9 331.0,167.4 315.9,263.8 240.0,285.7 154.0,269.6 141.4,163.1" fill="#10b9812e" stroke="#10b981" stroke-width="1.8"/>
  <circle cx="240.0" cy="95.9" r="4" fill="#34d399"/>
  <text x="240.0" y="52.0" text-anchor="middle" font-size="10.5" fill="#e2e8f0" font-family="system-ui,sans-serif" font-weight="600">Frontend</text>
  <circle cx="331.0" cy="167.4" r="4" fill="#34d399"/>
  <text x="389.0" y="138.0" text-anchor="start" font-size="10.5" fill="#e2e8f0" font-family="system-ui,sans-serif" font-weight="600">Backend</text>
  <circle cx="315.9" cy="263.8" r="4" fill="#34d399"/>
  <text x="389.0" y="310.0" text-anchor="start" font-size="10.5" fill="#e2e8f0" font-family="system-ui,sans-serif" font-weight="600">DevOps</text>
  <circle cx="240.0" cy="285.7" r="4" fill="#34d399"/>
  <text x="240.0" y="396.0" text-anchor="middle" font-size="10.5" fill="#e2e8f0" font-family="system-ui,sans-serif" font-weight="600">Design</text>
  <circle cx="154.0" cy="269.6" r="4" fill="#34d399"/>
  <text x="91.0" y="310.0" text-anchor="end" font-size="10.5" fill="#e2e8f0" font-family="system-ui,sans-serif" font-weight="600">Data</text>
  <circle cx="141.4" cy="163.1" r="4" fill="#34d399"/>
  <text x="91.0" y="138.0" text-anchor="end" font-size="10.5" fill="#e2e8f0" font-family="system-ui,sans-serif" font-weight="600">Testing</text>
</svg>