<svg viewBox="0 0 500 148" xmlns="http://www.w3.org/2000/svg" style="width:100%;height:auto">
    <rect width="500" height="148" fill="#080f10" rx="8"/>
    <polygon points="0,8 10,21 0,34" fill="#0eb47d"/>
    <rect x="10" y="8" width="476" height="26" fill="#10b981"/>
    <polygon points="486,8 500,8 493,21 500,34 486,34" fill="#10b981"/>
    <polygon points="493,21 500,8 500,34" fill="#0eb47d"/>
    <text x="20" y="25.0" font-size="11" fill="#fff" font-family="system-ui,sans-serif" font-weight="700" letter-spacing="0.06em">VISION</text>
    <text x="250" y="46.0" text-anchor="middle" font-size="9" fill="#6ee7b7" font-family="system-ui,sans-serif">Long-term direction of the company</text>
    <polygon points="0,52 10,65 0,78" fill="#09a271"/>
    <rect x="10" y="52" width="476" height="26" fill="#0ba875"/>
    <polygon points="486,52 500,52 493,65 500,78 486,78" fill="#0ba875"/>
    <polygon points="493,65 500,52 500,78" fill="#09a271"/>
    <text x="20" y="69.0" font-size="11" fill="#fff" font-family="system-ui,sans-serif" font-weight="700" letter-spacing="0.06em">MISSION</text>
    <text x="250" y="90.0" text-anchor="middle" font-size="9" fill="#6ee7b7" font-family="system-ui,sans-serif">Why we exist and who we serve</text>
    <polygon points="0,96 10,109 0,122" fill="#059669"/>
    <rect x="10" y="96" width="476" height="26" fill="#059669"/>
    <polygon points="486,96 500,96 493,109 500,122 486,122" fill="#059669"/>
    <polygon points="493,109 500,96 500,122" fill="#059669"/>
    <text x="20" y="113.0" font-size="11" fill="#fff" font-family="system-ui,sans-serif" font-weight="700" letter-spacing="0.06em">VALUES</text>
    <text x="250" y="134.0" text-anchor="middle" font-size="9" fill="#6ee7b7" font-family="system-ui,sans-serif">Principles that guide every decision</text>
  </svg>