<svg viewBox="0 0 500 140" xmlns="http://www.w3.org/2000/svg" style="width:100%;height:auto">
    <rect width="500" height="140" fill="#080f10" rx="8"/>
    
    <line x1="50" y1="80" x2="450" y2="80" stroke="#0e3020" stroke-width="3" /><circle cx="50" cy="80" r="8" fill="#059669" /><circle cx="50" cy="80" r="5" fill="#080f10" /><line x1="50" y1="80" x2="50" y2="66" stroke="#059669" stroke-width="1.5" stroke-dasharray="3,2" /><text x="50" y="58" text-anchor="middle" font-size="10" fill="#e2e8f0" font-family="system-ui,sans-serif" font-weight="600">Q1</text><text x="50" y="71" text-anchor="middle" font-size="9" fill="#6ee7b7" font-family="system-ui,sans-serif">Foundation</text><circle cx="183.33333333333334" cy="80" r="8" fill="#09a271" /><circle cx="183.33333333333334" cy="80" r="5" fill="#080f10" /><line x1="183.33333333333334" y1="80" x2="183.33333333333334" y2="94" stroke="#09a271" stroke-width="1.5" stroke-dasharray="3,2" /><text x="183.33333333333334" y="116" text-anchor="middle" font-size="10" fill="#e2e8f0" font-family="system-ui,sans-serif" font-weight="600">Q2</text><text x="183.33333333333334" y="129" text-anchor="middle" font-size="9" fill="#6ee7b7" font-family="system-ui,sans-serif">Beta Launch</text><circle cx="316.6666666666667" cy="80" r="8" fill="#0cad79" /><circle cx="316.6666666666667" cy="80" r="5" fill="#080f10" /><line x1="316.6666666666667" y1="80" x2="316.6666666666667" y2="66" stroke="#0cad79" stroke-width="1.5" stroke-dasharray="3,2" /><text x="316.6666666666667" y="58" text-anchor="middle" font-size="10" fill="#e2e8f0" font-family="system-ui,sans-serif" font-weight="600">Q3</text><text x="316.6666666666667" y="71" text-anchor="middle" font-size="9" fill="#6ee7b7" font-family="system-ui,sans-serif">Growth</text><circle cx="450" cy="80" r="8" fill="#10b981" /><circle cx="450" cy="80" r="5" fill="#080f10" /><line x1="450" y1="80" x2="450" y2="94" stroke="#10b981" stroke-width="1.5" stroke-dasharray="3,2" /><text x="450" y="116" text-anchor="middle" font-size="10" fill="#e2e8f0" font-family="system-ui,sans-serif" font-weight="600">Q4</text><text x="450" y="129" text-anchor="middle" font-size="9" fill="#6ee7b7" font-family="system-ui,sans-serif">Scale</text>
  </svg>