<svg viewBox="0 0 500 140" xmlns="http://www.w3.org/2000/svg" style="width:100%;height:auto">
    <rect width="500" height="140" fill="#ffffff" rx="8"/>
    
    <line x1="50" y1="80" x2="450" y2="80" stroke="#e5e7eb" stroke-width="3" /><circle cx="50" cy="80" r="8" fill="#1f2937" /><circle cx="50" cy="80" r="5" fill="#ffffff" /><line x1="50" y1="80" x2="50" y2="66" stroke="#1f2937" stroke-width="1.5" stroke-dasharray="3,2" /><text x="50" y="58" text-anchor="middle" font-size="10" fill="#111827" font-family="system-ui,sans-serif" font-weight="600">Q1</text><text x="50" y="71" text-anchor="middle" font-size="9" fill="#6b7280" font-family="system-ui,sans-serif">Foundation</text><circle cx="183.33333333333334" cy="80" r="8" fill="#273140" /><circle cx="183.33333333333334" cy="80" r="5" fill="#ffffff" /><line x1="183.33333333333334" y1="80" x2="183.33333333333334" y2="94" stroke="#273140" stroke-width="1.5" stroke-dasharray="3,2" /><text x="183.33333333333334" y="116" text-anchor="middle" font-size="10" fill="#111827" font-family="system-ui,sans-serif" font-weight="600">Q2</text><text x="183.33333333333334" y="129" text-anchor="middle" font-size="9" fill="#6b7280" font-family="system-ui,sans-serif">Beta Launch</text><circle cx="316.6666666666667" cy="80" r="8" fill="#2f3948" /><circle cx="316.6666666666667" cy="80" r="5" fill="#ffffff" /><line x1="316.6666666666667" y1="80" x2="316.6666666666667" y2="66" stroke="#2f3948" stroke-width="1.5" stroke-dasharray="3,2" /><text x="316.6666666666667" y="58" text-anchor="middle" font-size="10" fill="#111827" font-family="system-ui,sans-serif" font-weight="600">Q3</text><text x="316.6666666666667" y="71" text-anchor="middle" font-size="9" fill="#6b7280" font-family="system-ui,sans-serif">Growth</text><circle cx="450" cy="80" r="8" fill="#374151" /><circle cx="450" cy="80" r="5" fill="#ffffff" /><line x1="450" y1="80" x2="450" y2="94" stroke="#374151" stroke-width="1.5" stroke-dasharray="3,2" /><text x="450" y="116" text-anchor="middle" font-size="10" fill="#111827" font-family="system-ui,sans-serif" font-weight="600">Q4</text><text x="450" y="129" text-anchor="middle" font-size="9" fill="#6b7280" font-family="system-ui,sans-serif">Scale</text>
  </svg>