<svg viewBox="0 0 440 380" xmlns="http://www.w3.org/2000/svg" style="width:100%;height:auto">
    <rect width="440" height="380" fill="#0e0a1a" rx="8"/>
    <path d="M 220.9 130.0 L 221.8 70.0 A 120 120 0 0 1 333.6 151.2 L 276.8 170.6 A 60 60 0 0 0 220.9 130.0 Z" fill="#7c3aed" />
    <line x1="293.5" y1="88.9" x2="302.3" y2="76.7" stroke="#7c3aed" stroke-width="1" opacity="0.7"/>
    <text x="302.3" y="80.7" text-anchor="start" font-size="10" fill="#e2e8f0" font-family="system-ui,sans-serif" font-weight="600">Discovery</text>
    <path d="M 277.3 172.3 L 334.7 154.6 A 120 120 0 0 1 292.0 286.0 L 256.0 238.0 A 60 60 0 0 0 277.3 172.3 Z" fill="#8043ef" />
    <line x1="338.9" y1="228.6" x2="353.1" y2="233.3" stroke="#8043ef" stroke-width="1" opacity="0.7"/>
    <text x="353.1" y="237.3" text-anchor="start" font-size="10" fill="#e2e8f0" font-family="system-ui,sans-serif" font-weight="600">Planning</text>
    <path d="M 254.5 239.1 L 289.1 288.1 A 120 120 0 0 1 150.9 288.1 L 185.5 239.1 A 60 60 0 0 0 254.5 239.1 Z" fill="#844bf2" />
    <line x1="220.0" y1="315.0" x2="220.0" y2="330.0" stroke="#844bf2" stroke-width="1" opacity="0.7"/>
    <text x="220.0" y="334.0" text-anchor="middle" font-size="10" fill="#e2e8f0" font-family="system-ui,sans-serif" font-weight="600">Execution</text>
    <path d="M 184.0 238.0 L 148.0 286.0 A 120 120 0 0 1 105.3 154.6 L 162.7 172.3 A 60 60 0 0 0 184.0 238.0 Z" fill="#8754f4" />
    <line x1="101.1" y1="228.6" x2="86.9" y2="233.3" stroke="#8754f4" stroke-width="1" opacity="0.7"/>
    <text x="86.9" y="237.3" text-anchor="end" font-size="10" fill="#e2e8f0" font-family="system-ui,sans-serif" font-weight="600">Review</text>
    <path d="M 163.2 170.6 L 106.4 151.2 A 120 120 0 0 1 218.2 70.0 L 219.1 130.0 A 60 60 0 0 0 163.2 170.6 Z" fill="#8b5cf6" />
    <line x1="146.5" y1="88.9" x2="137.7" y2="76.7" stroke="#8b5cf6" stroke-width="1" opacity="0.7"/>
    <text x="137.7" y="80.7" text-anchor="end" font-size="10" fill="#e2e8f0" font-family="system-ui,sans-serif" font-weight="600">Retrospective</text>
  </svg>