<svg viewBox="0 0 500 420" xmlns="http://www.w3.org/2000/svg" style="width:100%;height:auto">
    <rect width="500" height="420" fill="#0e0a1a" rx="8"/>
    <polyline points="270.0,220.0 270.7,221.6 271.2,223.4 271.6,225.2 271.9,227.1 271.9,229.1 271.8,231.1 271.5,233.2 271.0,235.3 270.3,237.4 269.4,239.4 268.3,241.5 267.0,243.5 265.5,245.4 263.8,247.2 262.0,248.9 259.9,250.4 257.6,251.8 255.2,253.1 252.7,254.1 250.0,255.0 247.2,255.6 244.3,256.1 241.3,256.2 238.3,256.1 235.2,255.8 232.1,255.2 229.0,254.3 225.9,253.2 222.9,251.7 219.9,250.1 217.1,248.1 214.4,245.9 211.8,243.4 209.5,240.7 207.3,237.7 205.3,234.5 203.6,231.1 202.1,227.6 200.9,223.9 200.0,220.0 199.4,216.0 199.1,211.9 199.2,207.8 199.6,203.6 200.3,199.4 201.4,195.3 202.9,191.1 204.7,187.1 206.8,183.1 209.3,179.3 212.2,175.7 215.3,172.3 218.8,169.1 222.5,166.1 226.6,163.4 230.8,161.0 235.4,159.0 240.1,157.3 245.0,155.9 250.0,155.0 255.2,154.5 260.4,154.3 265.7,154.6 271.0,155.3 276.3,156.5 281.6,158.1 286.7,160.1 291.7,162.6 296.6,165.4 301.3,168.7 305.7,172.4 309.9,176.5 313.7,180.9 317.3,185.7 320.4,190.8 323.2,196.2 325.6,201.8 327.5,207.7 329.0,213.8 330.0,220.0 330.5,226.3 330.5,232.7 330.0,239.2 328.9,245.6 327.4,252.0 325.3,258.4 322.7,264.5 319.6,270.5 316.0,276.3 311.9,281.9 307.3,287.1 302.3,292.0 296.9,296.5 291.1,300.6 284.9,304.3 278.4,307.5 271.7,310.2 264.6,312.3 257.4,314.0 250.0,315.0 242.5,315.5 234.9,315.3 227.3,314.6 219.7,313.2 212.2,311.2 204.8,308.7 197.6,305.5 190.6,301.7 183.9,297.4 177.5,292.5 171.5,287.1 165.9,281.1 160.7,274.7 156.0,267.9 151.8,260.7 148.2,253.1 145.2,245.2 142.8,237.0 141.1,228.6 140.0,220.0 139.6,211.3 139.9,202.6 140.9,193.8 142.5,185.1 144.9,176.5 148.0,168.0 151.7,159.8 156.2,151.8 161.2,144.2 166.9,136.9 173.2,130.1 180.1,123.7 187.4,117.9 195.3,112.6 203.6,108.0 212.3,104.0 221.3,100.6 230.7,98.0 240.3,96.1 250.0,95.0 259.9,94.6 269.8,95.1 279.7,96.3 289.6,98.3 299.3,101.1 308.8,104.6 318.1,108.9 327.0,114.0 335.6,119.8 343.7,126.3 351.3,133.5 358.4,141.2 364.9,149.6 370.7,158.5 375.9,167.9 380.3,177.7 383.9,187.8 386.8,198.3 388.8,209.1 390.0,220.0 390.3,231.0 389.8,242.1 388.3,253.2 386.0,264.2 382.8,275.0 378.8,285.6 373.8,295.9 368.1,305.8 361.6,315.3 354.3,324.3 346.3,332.7 337.6,340.5 328.2,347.7 318.3,354.1 307.9,359.7 297.0,364.6 285.7,368.5 274.0,371.6 262.1,373.8 250.0,375.0 237.8,375.3 225.5,374.6 213.3,372.9 201.2,370.3 189.2,366.7 177.6,362.1 166.3,356.6 155.4,350.3 145.0,343.0 135.1,334.9 125.9,326.0 117.3,316.4 109.5,306.1 102.5,295.1 96.4,283.6 91.2,271.6 86.9,259.2 83.6,246.4 81.3,233.3 80.0,220.0" fill="none" stroke="#2d1f50" stroke-width="2" opacity="0.5"/>
    <circle cx="270.0" cy="220.0" r="7" fill="#8b5cf6"/>
    <text x="281.0" y="224.0" text-anchor="start" font-size="10" fill="#e2e8f0" font-family="system-ui,sans-serif" font-weight="600">MVP</text>
    <circle cx="209.3" cy="179.3" r="7" fill="#8754f4"/>
    <text x="198.3" y="183.3" text-anchor="end" font-size="10" fill="#e2e8f0" font-family="system-ui,sans-serif" font-weight="600">Beta</text>
    <circle cx="250.0" cy="315.0" r="7" fill="#844bf2"/>
    <text x="261.0" y="319.0" text-anchor="start" font-size="10" fill="#e2e8f0" font-family="system-ui,sans-serif" font-weight="600">v1.0</text>
    <circle cx="343.7" cy="126.3" r="7" fill="#8043ef"/>
    <text x="354.7" y="130.3" text-anchor="start" font-size="10" fill="#e2e8f0" font-family="system-ui,sans-serif" font-weight="600">v2.0</text>
    <circle cx="80.0" cy="220.0" r="9" fill="#a78bfa"/>
    <text x="67.0" y="224.0" text-anchor="end" font-size="10" fill="#e2e8f0" font-family="system-ui,sans-serif" font-weight="600">v3.0</text>
  </svg>