<svg viewBox="0 0 640 214" xmlns="http://www.w3.org/2000/svg" style="width:100%;height:auto;background:#f5f3ff;border-radius:8px">
  <text x="320" y="20" text-anchor="middle" font-size="13" fill="#7c3aed" font-family="system-ui,sans-serif" font-weight="600">Sprint 14</text>
  <rect x="10.0" y="40" width="200.0" height="132" rx="8" fill="#ffffff" stroke="#ddd6fe" stroke-width="1"/>
  <path d="M18.0,40 Q10,40 10,48 L10,84 L210.0,84 L210.0,48 Q210.0,40 202.0,40 Z" fill="#a78bfa22"/>
  <text x="110.0" y="59" text-anchor="middle" font-size="12" fill="#a78bfa" font-family="system-ui,sans-serif" font-weight="600">Backlog</text>
  <text x="110.0" y="74" text-anchor="middle" font-size="9" fill="#7c3aed" font-family="system-ui,sans-serif">13 pts</text>
  <line x1="10" y1="84" x2="210.0" y2="84" stroke="#ddd6fe" stroke-width="1"/>
  <rect x="18.0" y="92.0" width="184.0" height="30" rx="5" fill="#f5f3ff" stroke="#ddd6fe" stroke-width="1"/>
  <text x="26.0" y="111.0" font-size="11" fill="#2e1065" font-family="system-ui,sans-serif" >Payment gateway</text>
  <circle cx="189.0" cy="107.0" r="9" fill="#a78bfa30"/>
  <text x="189.0" y="111.0" text-anchor="middle" font-size="9" fill="#a78bfa" font-family="system-ui,sans-serif" font-weight="600">8</text>
  <rect x="18.0" y="128.0" width="184.0" height="30" rx="5" fill="#f5f3ff" stroke="#ddd6fe" stroke-width="1"/>
  <text x="26.0" y="147.0" font-size="11" fill="#2e1065" font-family="system-ui,sans-serif" >Mobile nav</text>
  <circle cx="189.0" cy="143.0" r="9" fill="#a78bfa30"/>
  <text x="189.0" y="147.0" text-anchor="middle" font-size="9" fill="#a78bfa" font-family="system-ui,sans-serif" font-weight="600">5</text>
  <rect x="220.0" y="40" width="200.0" height="132" rx="8" fill="#ffffff" stroke="#ddd6fe" stroke-width="1"/>
  <path d="M228.0,40 Q220,40 220,48 L220,84 L420.0,84 L420.0,48 Q420.0,40 412.0,40 Z" fill="#a78bfa22"/>
  <text x="320.0" y="59" text-anchor="middle" font-size="12" fill="#a78bfa" font-family="system-ui,sans-serif" font-weight="600">In Progress</text>
  <text x="320.0" y="74" text-anchor="middle" font-size="9" fill="#7c3aed" font-family="system-ui,sans-serif">10 pts</text>
  <line x1="220" y1="84" x2="420.0" y2="84" stroke="#ddd6fe" stroke-width="1"/>
  <rect x="228.0" y="92.0" width="184.0" height="30" rx="5" fill="#f5f3ff" stroke="#a78bfa" stroke-width="1.5"/>
  <rect x="228.0" y="96.0" width="3" height="22" rx="1.5" fill="#a78bfa"/>
  <text x="240.0" y="111.0" font-size="11" fill="#2e1065" font-family="system-ui,sans-serif" >Search filters</text>
  <circle cx="399.0" cy="107.0" r="9" fill="#a78bfa30"/>
  <text x="399.0" y="111.0" text-anchor="middle" font-size="9" fill="#a78bfa" font-family="system-ui,sans-serif" font-weight="600">5</text>
  <rect x="228.0" y="128.0" width="184.0" height="30" rx="5" fill="#f5f3ff" stroke="#a78bfa" stroke-width="1.5"/>
  <rect x="228.0" y="132.0" width="3" height="22" rx="1.5" fill="#a78bfa"/>
  <text x="240.0" y="147.0" font-size="11" fill="#2e1065" font-family="system-ui,sans-serif" >Analytics dash</text>
  <circle cx="399.0" cy="143.0" r="9" fill="#a78bfa30"/>
  <text x="399.0" y="147.0" text-anchor="middle" font-size="9" fill="#a78bfa" font-family="system-ui,sans-serif" font-weight="600">5</text>
  <rect x="430.0" y="40" width="200.0" height="132" rx="8" fill="#ffffff" stroke="#ddd6fe" stroke-width="1"/>
  <path d="M438.0,40 Q430,40 430,48 L430,84 L630.0,84 L630.0,48 Q630.0,40 622.0,40 Z" fill="#a78bfa22"/>
  <text x="530.0" y="59" text-anchor="middle" font-size="12" fill="#a78bfa" font-family="system-ui,sans-serif" font-weight="600">Done</text>
  <text x="530.0" y="74" text-anchor="middle" font-size="9" fill="#7c3aed" font-family="system-ui,sans-serif">6 pts</text>
  <line x1="430" y1="84" x2="630.0" y2="84" stroke="#ddd6fe" stroke-width="1"/>
  <rect x="438.0" y="92.0" width="184.0" height="30" rx="5" fill="#f5f3ff" stroke="#ddd6fe" stroke-width="1"/>
  <text x="446.0" y="111.0" font-size="11" fill="#7c3aed" font-family="system-ui,sans-serif" text-decoration="line-through">Error handling</text>
  <circle cx="609.0" cy="107.0" r="9" fill="#a78bfa30"/>
  <text x="609.0" y="111.0" text-anchor="middle" font-size="9" fill="#a78bfa" font-family="system-ui,sans-serif" font-weight="600">2</text>
  <rect x="438.0" y="128.0" width="184.0" height="30" rx="5" fill="#f5f3ff" stroke="#ddd6fe" stroke-width="1"/>
  <text x="446.0" y="147.0" font-size="11" fill="#7c3aed" font-family="system-ui,sans-serif" text-decoration="line-through">Unit tests</text>
  <circle cx="609.0" cy="143.0" r="9" fill="#a78bfa30"/>
  <text x="609.0" y="147.0" text-anchor="middle" font-size="9" fill="#a78bfa" font-family="system-ui,sans-serif" font-weight="600">4</text>
  <rect x="10" y="180" width="620" height="10" rx="5" fill="#ffffff" stroke="#ddd6fe" stroke-width="1"/>
  <rect x="10" y="180" width="128.3" height="10" rx="5" fill="#a78bfacc"/>
  <text x="320" y="202.0" text-anchor="middle" font-size="9" fill="#7c3aed" font-family="system-ui,sans-serif">Velocity: 6/29 pts · 21% complete</text>
</svg>