<svg viewBox="0 0 500 375" xmlns="http://www.w3.org/2000/svg" style="width:100%;height:auto">
    <rect width="500" height="375" fill="#080f18" rx="8"/>
    <line x1="250" y1="45.5" x2="250" y2="329.5" stroke="#0e3040" stroke-width="2" /><rect x="51" y="20" width="185" height="51" rx="6" fill="#0a1a20" stroke="#0891b2" stroke-width="1.5" ><title>2022: Founded</title></rect><circle cx="250" cy="45.5" r="7" fill="#0891b2" /><text x="143.5" y="38.3" text-anchor="middle" font-size="11" fill="#e2e8f0" font-family="system-ui,sans-serif" font-weight="600"><tspan x="143.5" dy="0">2022</tspan></text><text x="143.5" y="56.3" text-anchor="middle" font-size="10" fill="#67e8f9" font-family="system-ui,sans-serif"><tspan x="143.5" dy="0">Founded</tspan></text><rect x="264" y="91" width="185" height="51" rx="6" fill="#0a1a20" stroke="#089abb" stroke-width="1.5" ><title>2023: Seed round</title></rect><circle cx="250" cy="116.5" r="7" fill="#089abb" /><text x="356.5" y="109.3" text-anchor="middle" font-size="11" fill="#e2e8f0" font-family="system-ui,sans-serif" font-weight="600"><tspan x="356.5" dy="0">2023</tspan></text><text x="356.5" y="127.3" text-anchor="middle" font-size="10" fill="#67e8f9" font-family="system-ui,sans-serif"><tspan x="356.5" dy="0">Seed round</tspan></text><rect x="51" y="162" width="185" height="51" rx="6" fill="#0a1a20" stroke="#07a4c3" stroke-width="1.5" ><title>2024: Product launch</title></rect><circle cx="250" cy="187.5" r="7" fill="#07a4c3" /><text x="143.5" y="180.3" text-anchor="middle" font-size="11" fill="#e2e8f0" font-family="system-ui,sans-serif" font-weight="600"><tspan x="143.5" dy="0">2024</tspan></text><text x="143.5" y="198.3" text-anchor="middle" font-size="10" fill="#67e8f9" font-family="system-ui,sans-serif"><tspan x="143.5" dy="0">Product launch</tspan></text><rect x="264" y="233" width="185" height="51" rx="6" fill="#0a1a20" stroke="#07adcc" stroke-width="1.5" ><title>2025: Series A</title></rect><circle cx="250" cy="258.5" r="7" fill="#07adcc" /><text x="356.5" y="251.3" text-anchor="middle" font-size="11" fill="#e2e8f0" font-family="system-ui,sans-serif" font-weight="600"><tspan x="356.5" dy="0">2025</tspan></text><text x="356.5" y="269.3" text-anchor="middle" font-size="10" fill="#67e8f9" font-family="system-ui,sans-serif"><tspan x="356.5" dy="0">Series A</tspan></text><rect x="51" y="304" width="185" height="51" rx="6" fill="#0a1a20" stroke="#06b6d4" stroke-width="1.5" ><title>2026: Expansion</title></rect><circle cx="250" cy="329.5" r="7" fill="#06b6d4" /><text x="143.5" y="322.3" text-anchor="middle" font-size="11" fill="#e2e8f0" font-family="system-ui,sans-serif" font-weight="600"><tspan x="143.5" dy="0">2026</tspan></text><text x="143.5" y="340.3" text-anchor="middle" font-size="10" fill="#67e8f9" font-family="system-ui,sans-serif"><tspan x="143.5" dy="0">Expansion</tspan></text>
  </svg>