<svg viewBox="0 0 600 128" xmlns="http://www.w3.org/2000/svg" style="width:100%;height:auto">
    <rect width="600" height="128" fill="#080f10" rx="8"/>
    <line x1="34" y1="68" x2="566" y2="68" stroke="#0e3020" stroke-width="2"/>
    <polygon points="564.0,63.0 572.0,68 564.0,73.0" fill="#0e3020"/>
    <circle cx="34.0" cy="68" r="6" fill="#10b981"/>
    <line x1="34.0" y1="62" x2="34.0" y2="50" stroke="#10b981" stroke-width="1"/>
    <text x="34.0" y="46.0" text-anchor="middle" font-size="10" fill="#10b981" font-family="system-ui,sans-serif" font-weight="700">Kickoff</text>
    <text x="34.0" y="35.0" text-anchor="middle" font-size="9" fill="#6ee7b7" font-family="system-ui,sans-serif">Jan</text>
    <circle cx="167.0" cy="68" r="6" fill="#0db07b"/>
    <line x1="167.0" y1="74" x2="167.0" y2="86" stroke="#0db07b" stroke-width="1"/>
    <text x="167.0" y="98.0" text-anchor="middle" font-size="10" fill="#0db07b" font-family="system-ui,sans-serif" font-weight="700">Design</text>
    <text x="167.0" y="109.0" text-anchor="middle" font-size="9" fill="#6ee7b7" font-family="system-ui,sans-serif">Mar</text>
    <circle cx="300.0" cy="68" r="6" fill="#0ba875"/>
    <line x1="300.0" y1="62" x2="300.0" y2="50" stroke="#0ba875" stroke-width="1"/>
    <text x="300.0" y="46.0" text-anchor="middle" font-size="10" fill="#0ba875" font-family="system-ui,sans-serif" font-weight="700">Beta</text>
    <text x="300.0" y="35.0" text-anchor="middle" font-size="9" fill="#6ee7b7" font-family="system-ui,sans-serif">Jun</text>
    <circle cx="433.0" cy="68" r="6" fill="#089f6f"/>
    <line x1="433.0" y1="74" x2="433.0" y2="86" stroke="#089f6f" stroke-width="1"/>
    <text x="433.0" y="98.0" text-anchor="middle" font-size="10" fill="#089f6f" font-family="system-ui,sans-serif" font-weight="700">Review</text>
    <text x="433.0" y="109.0" text-anchor="middle" font-size="9" fill="#6ee7b7" font-family="system-ui,sans-serif">Sep</text>
    <circle cx="566.0" cy="68" r="6" fill="#34d399"/>
    <line x1="566.0" y1="62" x2="566.0" y2="50" stroke="#34d399" stroke-width="1"/>
    <text x="566.0" y="46.0" text-anchor="middle" font-size="10" fill="#34d399" font-family="system-ui,sans-serif" font-weight="700">Ship</text>
    <text x="566.0" y="35.0" text-anchor="middle" font-size="9" fill="#6ee7b7" font-family="system-ui,sans-serif">Dec</text>
  </svg>