<svg viewBox="0 0 500 410" xmlns="http://www.w3.org/2000/svg" style="width:100%;height:auto">
    <rect width="500" height="410" fill="#f0fdff" rx="8"/>
    <line x1="250" y1="20" x2="250" y2="390" stroke="#a5f3fc" stroke-width="2" /><rect x="56" y="20" width="180" height="54" rx="6" fill="#ffffff" stroke="#0e7490" stroke-width="1.5" /><circle cx="250" cy="47" r="7" fill="#0e7490" /><text x="146" y="41" text-anchor="middle" font-size="11" fill="#083344" font-family="system-ui,sans-serif" font-weight="600">2022</text><text x="146" y="57" text-anchor="middle" font-size="10" fill="#0e7490" font-family="system-ui,sans-serif">Founded</text><rect x="264" y="94" width="180" height="54" rx="6" fill="#ffffff" stroke="#0d7b99" stroke-width="1.5" /><circle cx="250" cy="121" r="7" fill="#0d7b99" /><text x="354" y="115" text-anchor="middle" font-size="11" fill="#083344" font-family="system-ui,sans-serif" font-weight="600">2023</text><text x="354" y="131" text-anchor="middle" font-size="10" fill="#0e7490" font-family="system-ui,sans-serif">Seed round</text><rect x="56" y="168" width="180" height="54" rx="6" fill="#ffffff" stroke="#0b83a1" stroke-width="1.5" /><circle cx="250" cy="195" r="7" fill="#0b83a1" /><text x="146" y="189" text-anchor="middle" font-size="11" fill="#083344" font-family="system-ui,sans-serif" font-weight="600">2024</text><text x="146" y="205" text-anchor="middle" font-size="10" fill="#0e7490" font-family="system-ui,sans-serif">Product launch</text><rect x="264" y="242" width="180" height="54" rx="6" fill="#ffffff" stroke="#0a8aaa" stroke-width="1.5" /><circle cx="250" cy="269" r="7" fill="#0a8aaa" /><text x="354" y="263" text-anchor="middle" font-size="11" fill="#083344" font-family="system-ui,sans-serif" font-weight="600">2025</text><text x="354" y="279" text-anchor="middle" font-size="10" fill="#0e7490" font-family="system-ui,sans-serif">Series A</text><rect x="56" y="316" width="180" height="54" rx="6" fill="#ffffff" stroke="#0891b2" stroke-width="1.5" /><circle cx="250" cy="343" r="7" fill="#0891b2" /><text x="146" y="337" text-anchor="middle" font-size="11" fill="#083344" font-family="system-ui,sans-serif" font-weight="600">2026</text><text x="146" y="353" text-anchor="middle" font-size="10" fill="#0e7490" font-family="system-ui,sans-serif">Expansion</text>
  </svg>