<svg viewBox="0 0 500 410" xmlns="http://www.w3.org/2000/svg" style="width:100%;height:auto">
    <rect width="500" height="410" fill="#080f18" rx="8"/>
    <line x1="250" y1="20" x2="250" y2="390" stroke="#0e3040" stroke-width="2" /><rect x="56" y="20" width="180" height="54" rx="6" fill="#0a1a20" stroke="#0891b2" stroke-width="1.5" /><circle cx="250" cy="47" r="7" fill="#0891b2" /><text x="146" y="41" text-anchor="middle" font-size="11" fill="#e2e8f0" font-family="system-ui,sans-serif" font-weight="600">2022</text><text x="146" y="57" text-anchor="middle" font-size="10" fill="#67e8f9" font-family="system-ui,sans-serif">Founded</text><rect x="264" y="94" width="180" height="54" rx="6" fill="#0a1a20" stroke="#089abb" stroke-width="1.5" /><circle cx="250" cy="121" r="7" fill="#089abb" /><text x="354" y="115" text-anchor="middle" font-size="11" fill="#e2e8f0" font-family="system-ui,sans-serif" font-weight="600">2023</text><text x="354" y="131" text-anchor="middle" font-size="10" fill="#67e8f9" font-family="system-ui,sans-serif">Seed round</text><rect x="56" y="168" width="180" height="54" rx="6" fill="#0a1a20" stroke="#07a4c3" stroke-width="1.5" /><circle cx="250" cy="195" r="7" fill="#07a4c3" /><text x="146" y="189" text-anchor="middle" font-size="11" fill="#e2e8f0" font-family="system-ui,sans-serif" font-weight="600">2024</text><text x="146" y="205" text-anchor="middle" font-size="10" fill="#67e8f9" font-family="system-ui,sans-serif">Product launch</text><rect x="264" y="242" width="180" height="54" rx="6" fill="#0a1a20" stroke="#07adcc" stroke-width="1.5" /><circle cx="250" cy="269" r="7" fill="#07adcc" /><text x="354" y="263" text-anchor="middle" font-size="11" fill="#e2e8f0" font-family="system-ui,sans-serif" font-weight="600">2025</text><text x="354" y="279" text-anchor="middle" font-size="10" fill="#67e8f9" font-family="system-ui,sans-serif">Series A</text><rect x="56" y="316" width="180" height="54" rx="6" fill="#0a1a20" stroke="#06b6d4" stroke-width="1.5" /><circle cx="250" cy="343" r="7" fill="#06b6d4" /><text x="146" y="337" text-anchor="middle" font-size="11" fill="#e2e8f0" font-family="system-ui,sans-serif" font-weight="600">2026</text><text x="146" y="353" text-anchor="middle" font-size="10" fill="#67e8f9" font-family="system-ui,sans-serif">Expansion</text>
  </svg>