<svg viewBox="0 0 560 110" xmlns="http://www.w3.org/2000/svg" style="width:100%;height:auto">
    <rect width="560" height="110" fill="#ffffff" rx="8"/>
    <line x1="30" y1="80" x2="530" y2="80" stroke="#e5e7eb" stroke-width="2"/>
    <polygon points="528.0,75.0 536.0,80 528.0,85.0" fill="#e5e7eb"/>
    <circle cx="30.0" cy="80" r="6" fill="#374151"/>
    <line x1="30.0" y1="74.0" x2="30.0" y2="62.0" stroke="#374151" stroke-width="1"/>
    <text x="30.0" y="58.0" text-anchor="middle" font-size="9" fill="#374151" font-family="system-ui,sans-serif" font-weight="700">Kickoff</text>
    <text x="30.0" y="46.0" text-anchor="middle" font-size="8" fill="#6b7280" font-family="system-ui,sans-serif">Jan</text>
    <circle cx="155.0" cy="80" r="6" fill="#313b4b"/>
    <line x1="155.0" y1="86.0" x2="155.0" y2="98.0" stroke="#313b4b" stroke-width="1"/>
    <text x="155.0" y="110.0" text-anchor="middle" font-size="9" fill="#313b4b" font-family="system-ui,sans-serif" font-weight="700">Design</text>
    <text x="155.0" y="122.0" text-anchor="middle" font-size="8" fill="#6b7280" font-family="system-ui,sans-serif">Mar</text>
    <circle cx="280.0" cy="80" r="6" fill="#2b3544"/>
    <line x1="280.0" y1="74.0" x2="280.0" y2="62.0" stroke="#2b3544" stroke-width="1"/>
    <text x="280.0" y="58.0" text-anchor="middle" font-size="9" fill="#2b3544" font-family="system-ui,sans-serif" font-weight="700">Beta</text>
    <text x="280.0" y="46.0" text-anchor="middle" font-size="8" fill="#6b7280" font-family="system-ui,sans-serif">Jun</text>
    <circle cx="405.0" cy="80" r="6" fill="#252f3e"/>
    <line x1="405.0" y1="86.0" x2="405.0" y2="98.0" stroke="#252f3e" stroke-width="1"/>
    <text x="405.0" y="110.0" text-anchor="middle" font-size="9" fill="#252f3e" font-family="system-ui,sans-serif" font-weight="700">Review</text>
    <text x="405.0" y="122.0" text-anchor="middle" font-size="8" fill="#6b7280" font-family="system-ui,sans-serif">Sep</text>
    <circle cx="530.0" cy="80" r="6" fill="#6b7280"/>
    <line x1="530.0" y1="74.0" x2="530.0" y2="62.0" stroke="#6b7280" stroke-width="1"/>
    <text x="530.0" y="58.0" text-anchor="middle" font-size="9" fill="#6b7280" font-family="system-ui,sans-serif" font-weight="700">Ship</text>
    <text x="530.0" y="46.0" text-anchor="middle" font-size="8" fill="#6b7280" font-family="system-ui,sans-serif">Dec</text>
  </svg>