<svg viewBox="0 0 670 244" xmlns="http://www.w3.org/2000/svg" style="width:100%;height:auto;background:#ffffff;border-radius:8px">
  
  <path d="M224.6,40.0 C224.6,59.0 169.4,59.0 169.4,78.0" fill="none" stroke="#e5e7eb" stroke-width="1.5"/>
  <path d="M169.4,108.0 C169.4,127.0 114.2,127.0 114.2,146.0" fill="none" stroke="#e5e7eb" stroke-width="1.5"/>
  <path d="M169.4,108.0 C169.4,127.0 224.6,127.0 224.6,146.0" fill="none" stroke="#e5e7eb" stroke-width="1.5"/>
  <path d="M224.6,40.0 C224.6,59.0 335.0,59.0 335.0,78.0" fill="none" stroke="#e5e7eb" stroke-width="1.5"/>
  <path d="M335.0,108.0 C335.0,127.0 335.0,127.0 335.0,146.0" fill="none" stroke="#e5e7eb" stroke-width="1.5"/>
  <path d="M500.6,40.0 C500.6,59.0 445.4,59.0 445.4,78.0" fill="none" stroke="#e5e7eb" stroke-width="1.5"/>
  <path d="M445.4,108.0 C445.4,127.0 445.4,127.0 445.4,146.0" fill="none" stroke="#e5e7eb" stroke-width="1.5"/>
  <path d="M500.6,40.0 C500.6,59.0 555.8,59.0 555.8,78.0" fill="none" stroke="#e5e7eb" stroke-width="1.5"/>
  <rect x="169.6" y="10.0" width="110" height="30" rx="6" fill="#f9fafb" stroke="#6b728088" stroke-width="1.2"/>
  <text x="224.6" y="29.0" text-anchor="middle" font-size="11" fill="#111827" font-family="system-ui,sans-serif">Frontend</text>
  <rect x="114.4" y="78.0" width="110" height="30" rx="6" fill="#f9fafb" stroke="#6b728088" stroke-width="1.2"/>
  <text x="169.4" y="97.0" text-anchor="middle" font-size="11" fill="#111827" font-family="system-ui,sans-serif">React</text>
  <rect x="59.2" y="146.0" width="110" height="30" rx="6" fill="#f9fafb" stroke="#6b728088" stroke-width="1.2"/>
  <text x="114.2" y="165.0" text-anchor="middle" font-size="11" fill="#111827" font-family="system-ui,sans-serif">Components</text>
  <rect x="169.6" y="146.0" width="110" height="30" rx="6" fill="#f9fafb" stroke="#6b728088" stroke-width="1.2"/>
  <text x="224.6" y="165.0" text-anchor="middle" font-size="11" fill="#111827" font-family="system-ui,sans-serif">Hooks</text>
  <rect x="280.0" y="78.0" width="110" height="30" rx="6" fill="#f9fafb" stroke="#6b728088" stroke-width="1.2"/>
  <text x="335.0" y="97.0" text-anchor="middle" font-size="11" fill="#111827" font-family="system-ui,sans-serif">CSS</text>
  <rect x="280.0" y="146.0" width="110" height="30" rx="6" fill="#f9fafb" stroke="#6b728088" stroke-width="1.2"/>
  <text x="335.0" y="165.0" text-anchor="middle" font-size="11" fill="#111827" font-family="system-ui,sans-serif">Tailwind</text>
  <rect x="445.6" y="10.0" width="110" height="30" rx="6" fill="#f9fafb" stroke="#6b728088" stroke-width="1.2"/>
  <text x="500.6" y="29.0" text-anchor="middle" font-size="11" fill="#111827" font-family="system-ui,sans-serif">Backend</text>
  <rect x="390.4" y="78.0" width="110" height="30" rx="6" fill="#f9fafb" stroke="#6b728088" stroke-width="1.2"/>
  <text x="445.4" y="97.0" text-anchor="middle" font-size="11" fill="#111827" font-family="system-ui,sans-serif">Node</text>
  <rect x="390.4" y="146.0" width="110" height="30" rx="6" fill="#f9fafb" stroke="#6b728088" stroke-width="1.2"/>
  <text x="445.4" y="165.0" text-anchor="middle" font-size="11" fill="#111827" font-family="system-ui,sans-serif">Routes</text>
  <rect x="500.8" y="78.0" width="110" height="30" rx="6" fill="#f9fafb" stroke="#6b728088" stroke-width="1.2"/>
  <text x="555.8" y="97.0" text-anchor="middle" font-size="11" fill="#111827" font-family="system-ui,sans-serif">Database</text>
</svg>