<svg viewBox="0 0 280 389" xmlns="http://www.w3.org/2000/svg" style="width:100%;height:auto;background:#f0fdf4;border-radius:8px">
  <text x="140" y="20" text-anchor="middle" font-size="13" fill="#059669" font-family="system-ui,sans-serif" font-weight="600">Budget Allocation</text>
  <rect x="36.5" y="46" width="18" height="18" rx="2" fill="#059669"/>
  <rect x="57.5" y="46" width="18" height="18" rx="2" fill="#059669"/>
  <rect x="78.5" y="46" width="18" height="18" rx="2" fill="#059669"/>
  <rect x="99.5" y="46" width="18" height="18" rx="2" fill="#059669"/>
  <rect x="120.5" y="46" width="18" height="18" rx="2" fill="#059669"/>
  <rect x="141.5" y="46" width="18" height="18" rx="2" fill="#059669"/>
  <rect x="162.5" y="46" width="18" height="18" rx="2" fill="#059669"/>
  <rect x="183.5" y="46" width="18" height="18" rx="2" fill="#059669"/>
  <rect x="204.5" y="46" width="18" height="18" rx="2" fill="#059669"/>
  <rect x="225.5" y="46" width="18" height="18" rx="2" fill="#059669"/>
  <rect x="36.5" y="67" width="18" height="18" rx="2" fill="#059669"/>
  <rect x="57.5" y="67" width="18" height="18" rx="2" fill="#059669"/>
  <rect x="78.5" y="67" width="18" height="18" rx="2" fill="#059669"/>
  <rect x="99.5" y="67" width="18" height="18" rx="2" fill="#059669"/>
  <rect x="120.5" y="67" width="18" height="18" rx="2" fill="#059669"/>
  <rect x="141.5" y="67" width="18" height="18" rx="2" fill="#059669"/>
  <rect x="162.5" y="67" width="18" height="18" rx="2" fill="#059669"/>
  <rect x="183.5" y="67" width="18" height="18" rx="2" fill="#059669"/>
  <rect x="204.5" y="67" width="18" height="18" rx="2" fill="#059669"/>
  <rect x="225.5" y="67" width="18" height="18" rx="2" fill="#059669"/>
  <rect x="36.5" y="88" width="18" height="18" rx="2" fill="#059669"/>
  <rect x="57.5" y="88" width="18" height="18" rx="2" fill="#059669"/>
  <rect x="78.5" y="88" width="18" height="18" rx="2" fill="#059669"/>
  <rect x="99.5" y="88" width="18" height="18" rx="2" fill="#059669"/>
  <rect x="120.5" y="88" width="18" height="18" rx="2" fill="#059669"/>
  <rect x="141.5" y="88" width="18" height="18" rx="2" fill="#059669"/>
  <rect x="162.5" y="88" width="18" height="18" rx="2" fill="#059669"/>
  <rect x="183.5" y="88" width="18" height="18" rx="2" fill="#059669"/>
  <rect x="204.5" y="88" width="18" height="18" rx="2" fill="#059669"/>
  <rect x="225.5" y="88" width="18" height="18" rx="2" fill="#059669"/>
  <rect x="36.5" y="109" width="18" height="18" rx="2" fill="#047857"/>
  <rect x="57.5" y="109" width="18" height="18" rx="2" fill="#047857"/>
  <rect x="78.5" y="109" width="18" height="18" rx="2" fill="#047857"/>
  <rect x="99.5" y="109" width="18" height="18" rx="2" fill="#047857"/>
  <rect x="120.5" y="109" width="18" height="18" rx="2" fill="#047857"/>
  <rect x="141.5" y="109" width="18" height="18" rx="2" fill="#047857"/>
  <rect x="162.5" y="109" width="18" height="18" rx="2" fill="#047857"/>
  <rect x="183.5" y="109" width="18" height="18" rx="2" fill="#047857"/>
  <rect x="204.5" y="109" width="18" height="18" rx="2" fill="#047857"/>
  <rect x="225.5" y="109" width="18" height="18" rx="2" fill="#047857"/>
  <rect x="36.5" y="130" width="18" height="18" rx="2" fill="#047857"/>
  <rect x="57.5" y="130" width="18" height="18" rx="2" fill="#047857"/>
  <rect x="78.5" y="130" width="18" height="18" rx="2" fill="#047857"/>
  <rect x="99.5" y="130" width="18" height="18" rx="2" fill="#047857"/>
  <rect x="120.5" y="130" width="18" height="18" rx="2" fill="#047857"/>
  <rect x="141.5" y="130" width="18" height="18" rx="2" fill="#047857"/>
  <rect x="162.5" y="130" width="18" height="18" rx="2" fill="#047857"/>
  <rect x="183.5" y="130" width="18" height="18" rx="2" fill="#047857"/>
  <rect x="204.5" y="130" width="18" height="18" rx="2" fill="#047857"/>
  <rect x="225.5" y="130" width="18" height="18" rx="2" fill="#047857"/>
  <rect x="36.5" y="151" width="18" height="18" rx="2" fill="#10b981"/>
  <rect x="57.5" y="151" width="18" height="18" rx="2" fill="#10b981"/>
  <rect x="78.5" y="151" width="18" height="18" rx="2" fill="#10b981"/>
  <rect x="99.5" y="151" width="18" height="18" rx="2" fill="#10b981"/>
  <rect x="120.5" y="151" width="18" height="18" rx="2" fill="#10b981"/>
  <rect x="141.5" y="151" width="18" height="18" rx="2" fill="#10b981"/>
  <rect x="162.5" y="151" width="18" height="18" rx="2" fill="#10b981"/>
  <rect x="183.5" y="151" width="18" height="18" rx="2" fill="#10b981"/>
  <rect x="204.5" y="151" width="18" height="18" rx="2" fill="#10b981"/>
  <rect x="225.5" y="151" width="18" height="18" rx="2" fill="#10b981"/>
  <rect x="36.5" y="172" width="18" height="18" rx="2" fill="#d1fae5"/>
  <rect x="57.5" y="172" width="18" height="18" rx="2" fill="#d1fae5"/>
  <rect x="78.5" y="172" width="18" height="18" rx="2" fill="#d1fae5"/>
  <rect x="99.5" y="172" width="18" height="18" rx="2" fill="#d1fae5"/>
  <rect x="120.5" y="172" width="18" height="18" rx="2" fill="#d1fae5"/>
  <rect x="141.5" y="172" width="18" height="18" rx="2" fill="#d1fae5"/>
  <rect x="162.5" y="172" width="18" height="18" rx="2" fill="#d1fae5"/>
  <rect x="183.5" y="172" width="18" height="18" rx="2" fill="#d1fae5"/>
  <rect x="204.5" y="172" width="18" height="18" rx="2" fill="#d1fae5"/>
  <rect x="225.5" y="172" width="18" height="18" rx="2" fill="#d1fae5"/>
  <rect x="36.5" y="193" width="18" height="18" rx="2" fill="#d97706"/>
  <rect x="57.5" y="193" width="18" height="18" rx="2" fill="#d97706"/>
  <rect x="78.5" y="193" width="18" height="18" rx="2" fill="#d97706"/>
  <rect x="99.5" y="193" width="18" height="18" rx="2" fill="#d97706"/>
  <rect x="120.5" y="193" width="18" height="18" rx="2" fill="#d97706"/>
  <rect x="141.5" y="193" width="18" height="18" rx="2" fill="#d97706"/>
  <rect x="162.5" y="193" width="18" height="18" rx="2" fill="#d97706"/>
  <rect x="183.5" y="193" width="18" height="18" rx="2" fill="#d97706"/>
  <rect x="204.5" y="193" width="18" height="18" rx="2" fill="#d97706"/>
  <rect x="225.5" y="193" width="18" height="18" rx="2" fill="#d97706"/>
  <rect x="36.5" y="214" width="18" height="18" rx="2" fill="#d97706"/>
  <rect x="57.5" y="214" width="18" height="18" rx="2" fill="#d97706"/>
  <rect x="78.5" y="214" width="18" height="18" rx="2" fill="#d97706"/>
  <rect x="99.5" y="214" width="18" height="18" rx="2" fill="#d97706"/>
  <rect x="120.5" y="214" width="18" height="18" rx="2" fill="#d97706"/>
  <rect x="141.5" y="214" width="18" height="18" rx="2" fill="#d97706"/>
  <rect x="162.5" y="214" width="18" height="18" rx="2" fill="#d97706"/>
  <rect x="183.5" y="214" width="18" height="18" rx="2" fill="#d97706"/>
  <rect x="204.5" y="214" width="18" height="18" rx="2" fill="#d97706"/>
  <rect x="225.5" y="214" width="18" height="18" rx="2" fill="#d97706"/>
  <rect x="36.5" y="235" width="18" height="18" rx="2" fill="#d97706"/>
  <rect x="57.5" y="235" width="18" height="18" rx="2" fill="#d97706"/>
  <rect x="78.5" y="235" width="18" height="18" rx="2" fill="#d97706"/>
  <rect x="99.5" y="235" width="18" height="18" rx="2" fill="#d97706"/>
  <rect x="120.5" y="235" width="18" height="18" rx="2" fill="#d97706"/>
  <rect x="141.5" y="235" width="18" height="18" rx="2" fill="#d97706"/>
  <rect x="162.5" y="235" width="18" height="18" rx="2" fill="#d97706"/>
  <rect x="183.5" y="235" width="18" height="18" rx="2" fill="#d97706"/>
  <rect x="204.5" y="235" width="18" height="18" rx="2" fill="#d97706"/>
  <rect x="225.5" y="235" width="18" height="18" rx="2" fill="#d97706"/>
  <rect x="16" y="262" width="12" height="12" rx="2" fill="#059669"/>
  <text x="32" y="272" font-size="10" fill="#052e16" font-family="system-ui,sans-serif">Engineering (30%)</text>
  <rect x="16" y="284" width="12" height="12" rx="2" fill="#047857"/>
  <text x="32" y="294" font-size="10" fill="#052e16" font-family="system-ui,sans-serif">Marketing (20%)</text>
  <rect x="16" y="306" width="12" height="12" rx="2" fill="#10b981"/>
  <text x="32" y="316" font-size="10" fill="#052e16" font-family="system-ui,sans-serif">Sales (10%)</text>
  <rect x="16" y="328" width="12" height="12" rx="2" fill="#d1fae5"/>
  <text x="32" y="338" font-size="10" fill="#052e16" font-family="system-ui,sans-serif">Operations (10%)</text>
  <rect x="16" y="350" width="12" height="12" rx="2" fill="#d97706"/>
  <text x="32" y="360" font-size="10" fill="#052e16" font-family="system-ui,sans-serif">Other (30%)</text>
</svg>