<svg viewBox="0 0 466 264" xmlns="http://www.w3.org/2000/svg" style="width:100%;height:auto;background:#0e0a1a;border-radius:8px">
  
  <rect x="174" y="36.0" width="118" height="30" rx="5" fill="#a78bfa2e" stroke="#a78bfa88" stroke-width="1.5"/>
  <text x="233.0" y="56.0" text-anchor="middle" font-size="10.5" fill="#e2e8f0" font-family="system-ui,sans-serif" font-weight="600">Frontend</text>
  <path d="M292,51.0 H312 V31.0 H332" fill="none" stroke="#2d1f50" stroke-width="1.2"/>
  <rect x="332" y="16.0" width="118" height="30" rx="4" fill="#c4b5fd22" stroke="#c4b5fd" stroke-width="1"/>
  <text x="391.0" y="36.0" text-anchor="middle" font-size="10" fill="#c4b5fd" font-family="system-ui,sans-serif" text-decoration="line-through">Components</text>
  <path d="M292,51.0 H312 V71.0 H332" fill="none" stroke="#2d1f50" stroke-width="1.2"/>
  <rect x="332" y="56.0" width="118" height="30" rx="4" fill="#13101e" stroke="#2d1f50" stroke-width="1"/>
  <text x="391.0" y="76.0" text-anchor="middle" font-size="10" fill="#ddd6fe" font-family="system-ui,sans-serif" >State Mgmt</text>
  <rect x="174" y="116.0" width="118" height="30" rx="5" fill="#a78bfa2e" stroke="#a78bfa88" stroke-width="1.5"/>
  <text x="233.0" y="136.0" text-anchor="middle" font-size="10.5" fill="#e2e8f0" font-family="system-ui,sans-serif" font-weight="600">Backend</text>
  <path d="M292,131.0 H312 V111.0 H332" fill="none" stroke="#2d1f50" stroke-width="1.2"/>
  <rect x="332" y="96.0" width="118" height="30" rx="4" fill="#c4b5fd22" stroke="#c4b5fd" stroke-width="1"/>
  <text x="391.0" y="116.0" text-anchor="middle" font-size="10" fill="#c4b5fd" font-family="system-ui,sans-serif" text-decoration="line-through">API Design</text>
  <path d="M292,131.0 H312 V151.0 H332" fill="none" stroke="#2d1f50" stroke-width="1.2"/>
  <rect x="332" y="136.0" width="118" height="30" rx="4" fill="#13101e" stroke="#c4b5fd88" stroke-width="1.5"/>
  <text x="391.0" y="156.0" text-anchor="middle" font-size="10" fill="#e2e8f0" font-family="system-ui,sans-serif" >Auth</text>
  <rect x="174" y="196.0" width="118" height="30" rx="5" fill="#a78bfa2e" stroke="#a78bfa88" stroke-width="1.5"/>
  <text x="233.0" y="216.0" text-anchor="middle" font-size="10.5" fill="#e2e8f0" font-family="system-ui,sans-serif" font-weight="600">QA</text>
  <path d="M292,211.0 H312 V191.0 H332" fill="none" stroke="#2d1f50" stroke-width="1.2"/>
  <rect x="332" y="176.0" width="118" height="30" rx="4" fill="#13101e" stroke="#2d1f50" stroke-width="1"/>
  <text x="391.0" y="196.0" text-anchor="middle" font-size="10" fill="#ddd6fe" font-family="system-ui,sans-serif" >Unit Tests</text>
  <path d="M292,211.0 H312 V231.0 H332" fill="none" stroke="#2d1f50" stroke-width="1.2"/>
  <rect x="332" y="216.0" width="118" height="30" rx="4" fill="#13101e" stroke="#2d1f50" stroke-width="1"/>
  <text x="391.0" y="236.0" text-anchor="middle" font-size="10" fill="#ddd6fe" font-family="system-ui,sans-serif" >E2E</text>
  <line x1="154" y1="51.0" x2="154" y2="211.0" stroke="#2d1f50" stroke-width="1.5"/>
  <line x1="154" y1="51.0" x2="174" y2="51.0" stroke="#2d1f50" stroke-width="1.2"/>
  <line x1="154" y1="131.0" x2="174" y2="131.0" stroke="#2d1f50" stroke-width="1.2"/>
  <line x1="154" y1="211.0" x2="174" y2="211.0" stroke="#2d1f50" stroke-width="1.2"/>
  <rect x="16" y="116.0" width="118" height="30" rx="6" fill="#c4b5fd33" stroke="#c4b5fd99" stroke-width="2"/>
  <text x="75.0" y="136.0" text-anchor="middle" font-size="11" fill="#c4b5fd" font-family="system-ui,sans-serif" font-weight="700">Platform v2</text>
  <line x1="134" y1="131.0" x2="154" y2="131.0" stroke="#2d1f50" stroke-width="1.5"/>
</svg>