<svg viewBox="0 0 500 170" xmlns="http://www.w3.org/2000/svg" style="width:100%;height:auto">
    <rect width="500" height="170" fill="#f0fdf4" rx="8"/>
    <line x1="250" y1="8" x2="250" y2="162" stroke="#bbf7d0" stroke-width="2"/>
    <rect x="52.0" y="12.0" width="190" height="30" rx="6" fill="#05966922" stroke="#059669" stroke-width="1.2"/>
    <text x="147.0" y="31.0" text-anchor="middle" font-size="11" fill="#052e16" font-family="system-ui,sans-serif" font-weight="600">Research</text>
    <circle cx="250" cy="27" r="4" fill="#059669"/>
    <line x1="250" y1="27" x2="242" y2="27" stroke="#059669" stroke-width="1.2"/>
    <rect x="258.0" y="50.0" width="190" height="30" rx="6" fill="#058c6322" stroke="#058c63" stroke-width="1.2"/>
    <text x="353.0" y="69.0" text-anchor="middle" font-size="11" fill="#052e16" font-family="system-ui,sans-serif" font-weight="600">Prototype</text>
    <circle cx="250" cy="65" r="4" fill="#058c63"/>
    <line x1="250" y1="65" x2="258" y2="65" stroke="#058c63" stroke-width="1.2"/>
    <rect x="52.0" y="88.0" width="190" height="30" rx="6" fill="#04825d22" stroke="#04825d" stroke-width="1.2"/>
    <text x="147.0" y="107.0" text-anchor="middle" font-size="11" fill="#052e16" font-family="system-ui,sans-serif" font-weight="600">Test</text>
    <circle cx="250" cy="103" r="4" fill="#04825d"/>
    <line x1="250" y1="103" x2="242" y2="103" stroke="#04825d" stroke-width="1.2"/>
    <rect x="258.0" y="126.0" width="190" height="30" rx="6" fill="#04785722" stroke="#047857" stroke-width="1.2"/>
    <text x="353.0" y="145.0" text-anchor="middle" font-size="11" fill="#052e16" font-family="system-ui,sans-serif" font-weight="600">Launch</text>
    <circle cx="250" cy="141" r="4" fill="#047857"/>
    <line x1="250" y1="141" x2="258" y2="141" stroke="#047857" stroke-width="1.2"/>
  </svg>